<?xml version="1.0" encoding="utf-8"?>
<!-- Generator: Adobe Illustrator 28.3.0, SVG Export Plug-In . SVG Version: 6.00 Build 0)  -->
<svg version="1.1" id="Layer_1" xmlns="http://www.w3.org/2000/svg" xmlns:xlink="http://www.w3.org/1999/xlink" x="0px" y="0px"
	 viewBox="0 0 1080 1080" style="enable-background:new 0 0 1080 1080;" xml:space="preserve">
<style type="text/css">
	.st0{clip-path:url(#SVGID_00000181787627098908607980000018021538973584598917_);}
	.st1{fill:#1B224A;}
</style>
<g>
	<g>
		<g>
			<defs>
				<path id="SVGID_1_" d="M540,701.88L540,701.88c-131.13,0-237.43-106.3-237.43-237.42v-95.49
					c0-131.13,106.3-237.42,237.42-237.42h0c131.13,0,237.42,106.3,237.42,237.42v95.49C777.42,595.59,671.13,701.88,540,701.88z"/>
			</defs>
			<clipPath id="SVGID_00000172426206464989415200000012100392795645941931_">
				<use xlink:href="#SVGID_1_"  style="overflow:visible;"/>
			</clipPath>
			<g style="clip-path:url(#SVGID_00000172426206464989415200000012100392795645941931_);">
				<path class="st1" d="M750.94,596.65c0.39-3.72,0.3-7.49,0.64-11.23c0.31-3.53,0.21-7.1,1.39-10.55
					c2.26-6.65,4.53-13.3,6.39-20.07c4.95-17.99,9.28-36.09,8.87-54.98c-0.04-1.57-0.37-2.69-1.53-3.81
					c-7.72-7.41-15.45-14.83-23.03-22.39c-18.32-18.26-37.09-36.09-52.77-56.87c-5.09-6.75-10.41-13.33-14.41-20.85
					c-0.67-1.27-1.34-2.52-1.37-4.08c-0.14-7.5-0.4-14.99-0.6-22.49c-0.28-10.59-1.85-20.92-6.11-30.7
					c-5.46-12.55-11.74-24.67-18.66-36.46c-0.65-1.11-1.21-2.2-1.42-3.5c-0.72-4.46-2.32-8.62-4.34-12.62
					c-9.96-19.79-21.36-38.74-32.58-57.8c-1.04-1.77-1.44-3.15-0.42-5.22c2.37-4.82,0.92-10.3-3.31-13.08
					c-1.42-0.94-1.76-1.63-1.36-3.37c2.07-9.16-3.52-15.21-12.75-14c-0.71,0.1-1.44,0.13-2.15,0.23c-0.79,0.1-1.28-0.19-1.83-0.83
					c-4.6-5.39-10.21-9.56-16.3-12.97c-22.97-12.84-47.01-14.24-71.6-5.8c-18.09,6.21-32.57,17.5-42.62,34.1
					c-1.91,3.16-3.7,4.88-7.43,5.31c-6.03,0.69-8.9,4.62-8.79,10.76c0.04,2.14,0.54,4.16,1.5,6.06c0.43,0.84,0.55,1.56,0,2.52
					c-3.19,5.58-2.92,9.43,1.03,14.26c0.87,1.07,0.99,1.9,0.53,3.18c-4.09,11.32-7.36,22.9-10.35,34.55
					c-3.22,12.56-4.94,25.22-2.97,38.26c1.36,9.04,3.19,17.98,4.64,27c1.08,6.73,2.95,12.98-0.65,20.23
					c-7.63,15.36-8.67,32.1-5.84,48.99c0.42,2.48-0.38,3.31-2.39,4.13c-7.02,2.87-14,5.82-20.93,8.87
					c-9.76,4.3-19.61,8.53-27.28,16.35c-2.12,2.16-3.91,2.55-6.78,1.6c-6.32-2.11-12.45-1.52-17.91,2.82
					c-3.05,2.44-5.28,5.51-6.62,9.17c-1.1,2.99-2.68,5.21-5.89,6.17c-2.07,0.62-3.8,2.04-5.36,3.61c-3.83,3.83-4.97,8.54-4.61,13.8
					c0.12,1.8,0.36,3.62-1.16,5.12c-3.75,3.7-5.24,8.32-5.67,13.54c-0.81,9.95-3.27,19.17-11.93,25.41
					c-1.45,1.04-2.67,2.48-3.79,3.9c-7.87,9.96-16.08,19.63-24.09,29.46c-15.49,19.02-19.75,40.88-12.13,64.57
					c6.41,19.93,22.46,31.24,42.2,29.9c12.85-0.87,24.1-6.35,34.79-13.26c1.75-1.13,1.33-1.85,0.29-3.09
					c-10.59-12.57-14.6-26.83-10.57-43.09c0.32-1.27,0.21-1.71-1.2-1.93c-9.08-1.48-16.7-5.93-23.39-12.15
					c-0.24,0.23-0.47,0.47-0.71,0.7c-0.13,1.11-0.67,0.89-1.42,0.56c-0.5-0.23-1.4-0.48-0.77,0.72c0.48,0.27,1.02,0.75,0.53,1.18
					c-0.46,0.39-0.77-0.34-1.03-0.74c-0.72,0.29-1.06-0.96-1.7-0.44c-0.86,0.47,2.25,2.5-0.96,2.06c-0.51-0.07-0.19,0.47-0.04,0.74
					c0.46,0.77,0.9,1.54,1.34,2.31c0.37,0.31,1.04,0.67,0.7,1.11c-0.38,0.5-0.9,0.06-1.2-0.42c-0.99-0.34-1.26-2.17-2.82-1.41
					c1.44,1.71,2.4,3.64,3.34,5.94c-1.87-0.93-2.3-3.14-4.58-3.48c1.41,2.55,2.67,4.84,3.93,7.13c0.52,0.18,0.71,0.61,0.35,0.97
					c-0.3,0.28-0.53-0.22-0.75-0.45c-4.43-2.66-7.59-6.42-9.33-11.33c-2.62-7.38-2.35-14.91-0.77-22.43
					c2.64-12.51,10.27-21.94,18.79-30.79c0.22-0.23,0.54-0.5,0.99-0.02c-0.07,0.27-0.1,0.63-0.23,0.94
					c-2.11,4.94-4.28,9.86-5.54,15.12c-2.01,8.45-2.77,16.87,1.97,24.7c5.57,9.2,14.28,13.87,24.26,16.55
					c1.34,0.37,1.71-0.36,2.15-1.36c3.42-7.71,8.29-14.37,14.6-19.83c2.14-1.85,1.72-2.71,0.04-4.48
					c-5.44-5.73-8.83-12.54-9.91-20.88c2.43,1.88,3.83,4.08,4.93,6.48c2,4.33,4.42,8.36,7.76,11.78c1.62,1.67,4.71,3.32,4.42,5.06
					c-0.31,1.96-3.1,3.54-4.87,5.23c-8.94,8.53-15.23,18.41-16.15,31.25c-0.02,0.26,0.02,0.67,0.18,0.72
					c1.57,0.45,11.31-34.86,24.18-56.37c4.53-7.58,6.8-11.37,10.32-14.76c3.96-3.82,6.83-5.15,8.73-9.65
					c1.89-4.49,0.16-5.83,2.38-10.05c1.95-3.7,3.68-3.43,7.54-8.85c2.54-3.57,1.86-3.78,3.96-6.46c3.87-4.92,5.91-3.85,9.14-8.06
					c1.12-1.46,4.49-5.9,4.89-11.12c0.09-1.15,0.29-3.43,1.65-5.84c0.38-0.67,0.93-1.32,1.81-2.01c8.29-6.5,20.54,0.35,26.77-6.93
					c2.13-2.49,2.86-5.84,2.91-6.02c1.82-6.7-2.01-12.35-8.82-13.14c-4.24-0.49-8.52-0.31-12.67,0.46
					c-10.36,1.93-20.68,4.15-30.98,6.4c-2.76,0.61-4.94-0.5-7.69-1.34c4.41-4.07,9.25-6.48,14.16-8.74
					c26.24-12.07,53.07-22.77,79.64-34.06c1.43-0.61,2.92-1.08,4.46-1.65c0.13,1.83,0.16,3.29,0.34,4.73
					c0.86,6.73,4.91,11.68,9.17,16.42c6.63,7.38,15,12.13,24.08,15.69c1.3,1,3.14,0.47,4.4,1.6c0.36,0.01,0.72,0.01,1.08,0.02
					c4.21,0.05,4.42,0.23,4.45,4.33c0.08,11.6,0.32,59.91,0.11,71.51c-0.08,4.75,0.75,8.77,4.55,11.88c0.45-0.67,0.26-1.5,0.29-2.28
					c0.53-14.06,0.27-64.85,0.36-78.91c0.03-5.39-0.01-5.39,5.24-5.69c1.15,0.52,2.27,0.31,3.38-0.15c1.8-1.04,3.85-0.48,5.9-1.16
					c0.22,11.58,0.29,22.96,1.35,34.31c0.43-0.88,0.58-1.75,0.69-2.63c1.09-9.73,1.78-19.48,2.17-29.25
					c0.1-2.49,0.77-3.52,3.21-4.27c13.44-4.14,25.02-11.17,33.23-23.09c0.84-1.22,1.61-1.57,3.12-1.21
					c19.71,4.81,39.21,10.35,58.65,16.17c3.28,0.98,6.55,1.94,9.83,2.91c-17.35-8.13-34.02-17.33-50.08-27.9
					c1.1-0.45,1.9-0.01,2.74,0.34c5.99,2.5,11.99,4.96,17.98,7.46c16.9,7.05,33.74,14.26,50.27,22.16c1.36,0.65,1.81,1,0.79,2.47
					c-1.73,2.47-2.71,5.31-3.57,8.22c-2.01,6.75-3.49,13.6-4.71,20.52c-1.35,7.66-2.53,15.35-3.78,23.09
					c1.15,0.1,1.16-0.72,1.39-1.23c0.96-2.27,1.84-4.57,2.82-6.83c4-9.29,7.92-18.62,13.8-26.93c1.36-1.93,2.95-3.63,5.5-4.82
					c-1.97,7.82-3.87,15.32-5.76,22.82c0.29,0.15,0.57,0.31,0.86,0.47c2.48-5.03,5.19-9.91,8.69-14.88
					c2.58,11.26,4.77,21.97,6.5,32.77c2.71,16.94,2.4,33.87-0.26,50.79c-0.12,0.7-1.27,1.64-0.25,2.09c1.1,0.48,1.26-1,1.76-1.66
					c3.53-4.67,5.82-10.07,8.7-15.13c0.78-1.37,1.39-2.86,2.67-4.05c5.12,22.93-3.87,48.38-18.7,61.42c0.91,0.47,1.68,0.01,2.5-0.31
					c4.11-1.6,8.24-3.19,12.38-4.74c5.75-2.15,11.45-4.46,17.59-5.18c3.41-0.4,4.2,0.6,3.15,3.86c-1.91,5.94-5.51,10.85-9.59,15.4
					c-3.4,3.81-7.55,6.76-11.87,9.91c16.49,1.64,31.74,12.51,31.5,22.21c-0.17-0.06-0.37-0.07-0.48-0.18
					c-13.1-12.73-28.84-18.56-46.86-18.3c-2.15,0.03-3.53-1.16-5.02-2.28c-1.01-0.75-0.28-2.23-1.2-3.21
					c-1.54-1.63-3.4-2.71-5.33-3.68c-1.93-0.98-3.09-2.38-3.31-4.61c-0.45-4.54-1.17-9.06-0.95-13.66
					c-0.52-4.41-0.66-8.92-1.66-13.22c-1.26-5.42-0.19-9.68,3.47-13.87c4.29-4.9,6.73-11.12,10.21-16.61
					c4.07-12.7,6.43-25.57,4.19-38.91c-0.93,18.9-11.17,32.55-24.16,45.28c-0.25-2.27-0.66-3.92-0.57-5.53
					c0.23-4.27-1.99-8.33-1.03-12.65c-0.37,0.1-0.74,0.2-1.1,0.31c-1.03,19.21-0.74,38.46-1.44,58.37
					c-3.4-4.26-7.04-7.27-10.18-10.76c-5.46-6.07-12-7.22-19.47-5.3c-4.45,1.13-8.76,2.83-13.31,3.62c-0.87,0.15-1.6,0.35-2.23-0.35
					c3.93-2.29,8.17-3.79,12.36-5.43c2.69-1.05,5.29-2.38,7.54-4.24c4.91-4.08,7.38-9.18,5.84-15.71
					c-1.27-5.36-6.32-9.56-12.4-10.35c-4.35-0.57-8.34,0.64-12.31,3.41c0-1.71-0.09-2.95,0.02-4.18c0.17-1.8-0.39-2.68-2.32-2.72
					c-2.16-0.04-4.3-0.45-6.46-0.58c-17.03-0.95-34.08-0.69-51.12-0.34c-4.86,0.1-9.72,0.42-14.54,1.32
					c-1.21,0.23-1.68,0.61-1.67,1.86c0.04,10.42-0.12,20.85,2.32,31.09c1.18,4.95,3.04,9.62,5.51,14.12l0.08,0.16
					c0.17,0.3,0.34,0.6,0.51,0.9c-0.01,0-0.02,0-0.04,0.01l3.94,7.61c0.58,0.42,0.35,1.11,0.05,1.84c-0.66,1.68-1.3,3.37-1.94,5.06
					c0.06,1.24-0.22,1.87-1.3,1.6c0,0,0,0-0.01,0c-1.45,0.59-3.17,2.77-4.39,4.56c-0.06,0.25-0.17,0.52-0.32,0.84
					c-1.95,3.95-1.16,7.12,2.16,10.01c3.49,3.04,7.26,5.72,10.99,8.42c12.34,8.96,26.16,15.42,38.88,23.76
					c2.33,1.53,5.11,2.25,7.84,2.93c6.84,1.7,13.79,1.41,20.73,1.1c1.73-0.08,2.46,0.17,2.61,2.22c0.42,5.56,1.4,11.05,3.41,16.3
					c1.05,2.76,2.62,5,5.41,6.14c8.47,3.48,16.23,8.33,24.26,12.67c17.82,9.65,36.54,13,56.5,8.83
					c19.45-4.07,30.29-15.62,32.71-35.57c1.35-11.17-0.67-22.03-3.29-32.81C753.18,619.62,749.7,608.5,750.94,596.65z
					 M312.21,588.04c0.14-0.08,0.36-0.27,0.42-0.23c0.18,0.14,0.3,0.35,0.44,0.53c-0.14,0.2-0.23,0.33-0.32,0.46
					C312.57,588.55,312.39,588.29,312.21,588.04z M298.89,602.09c-1.52-1.24-2.83-2.31-4.51-3.69c-0.4,3.75,1.26,6.62,1.91,10.11
					c-1.06-1.41-1.96-2.61-2.87-3.81c-0.27,0.22-0.54,0.43-0.82,0.65c-0.66,2.87,0.08,5.68,0.64,8.47c0.58,2.93,1.49,5.74,3.36,8.17
					c0.56,0.73,1.3,1.56,1.15,2.68l0.12,0.01l-0.08,0.03c-3.54-2-6.43-4.77-8.83-8.34c-1.15,4.26,1.73,7.46,1.93,11.55
					c-1.9-1.35-3.33-2.67-4.34-4.45c-6.42-8.81-8.22-18.76-6.5-29.34c2.09-12.86,8.7-23.42,17.25-32.87
					c0.16-0.18,0.45-0.22,1.45-0.68c-4.42,13.04-3.8,25.66-0.64,38.28C298.67,599.69,298.94,600.62,298.89,602.09z M409.81,468.43
					 M420.76,454.08c5.82-2.01,11.84-1.93,17.87-1.73c1.67,0.05,3.23,0.7,3.82,2.5c0.56,1.7-0.04,3.25-1.18,4.53
					c-2.1,2.36-4.96,3.24-7.9,3.76c-3.11,0.55-6.26,0.72-9.38,0.01c-3.37-0.34-6.6-1.21-8.99-3.78c-1.06-1.13-2.22-0.89-3.41-1.09
					c-0.94-0.16-1.84-0.49-2.81-1.15C412.92,456.55,416.58,454.34,420.76,454.08z M398.76,465.63c3,1.35,6.19,2.69,7.62,6.15
					c4.45,6.63,2.41,18.2-3.9,21.66c-0.32-0.76-0.66-1.49-0.93-2.25c-1.43-4.11-4.14-7-8.06-8.72c-8.83-3.89-17.66-7.79-26.51-11.64
					c-1.56-0.68-3.2-1.18-4.8-1.76c-1.04-0.16-1.71-0.02-0.84,1.19c1.23,1.7,2.77,3.1,4.55,4.2c6.61,4.11,13.89,6.84,20.79,10.33
					c2.48,1.25,5.12,2.37,6.19,5.34c2.04,5.07,2.25,10.3,0.49,15.4c-1.19,3.42-2.85,3.63-5.84,1.7c-4.81-3.1-10.31-4.72-15.45-7.12
					c-6.61-3.1-13.25-6.13-19.9-9.15c-1.54-0.7-3.08-1.52-4.86-1.43c2.37,3.94,5.85,6.67,9.82,8.72c7.21,3.7,14.52,7.22,21.77,10.85
					c2.23,1.12,4.53,2.25,4.85,5.23c1.3,3.58-0.43,10.05-3.25,12.21c-1.41,1.08-3.02,1.42-4.6,0.75
					c-10.6-4.53-21.53-8.31-31.72-13.8c-0.92-0.5-1.91-1.05-2.48-2.04c-1.31,0.21-3.22-0.12-3.64,1.14
					c-0.47,1.38,1.19,2.44,2.18,3.43c3.66,3.69,8.44,5.44,12.98,7.58c4.8,2.25,9.69,4.29,14.52,6.47c0.97,0.44,1.84,1.09,2.76,1.65
					c1.03,0.51,1.78,1.32,1.91,2.47c0.6,5.35-5.18,11.94-10.65,10.54c-7.87-2.02-15.37-5.21-23.27-7.1
					c-1.59-0.38-3.15-1.22-4.88-0.8c2.32,2.96,3.73,6.3,4.28,10.07c0.3,2.07-0.14,3.15-2.42,2.91c-1.06-0.1-2.14-0.01-3.48,0.43
					c1.91,1,3.82,2,5.73,2.98c1.85,0.95,4.55,1.92,4.28,3.94c-0.17,1.27-3.33,0.55-5.16,0.7c-0.71,0.06-1.44-0.01-2.16-0.05
					c-8.45-0.53-7.28,0.59-9.01-7.9c-1.28-6.29-1-12.73-0.12-19.11c0.06-0.45,0.07-0.91,0.6-1.11c-0.07-4.39,1.27-8.47,2.87-12.45
					c1.78-4.44,3.16-8.92,3.08-13.79c-0.07-3.54,1.21-6.64,3.83-9.05c2.37-2.19,3.47-4.8,3.13-8.06c-0.12-1.08,0.01-2.2-0.02-3.29
					c-0.12-5.15,2.04-8.89,6.89-10.6c4.63-1.64,7.28-4.72,8.95-9.41c2.99-8.39,8.86-10.97,17.24-8.08
					C381.17,458.05,390.04,461.67,398.76,465.63z M673.79,411.63c0.51-0.83,0.97-1.68,1.59-2.76c1.7,2.71,4.01,4.73,4.94,7.81
					c-2.06-1.16-4.13-2.31-6.19-3.47C673.41,412.82,673.37,412.3,673.79,411.63z M663.82,358.88c0.82,0.5,1.21,1.06,1.38,1.73
					c-0.11,0.3-0.22,0.29-0.43,0.15C664.16,360.35,663.08,360.27,663.82,358.88z M663.57,386.09c-1.61-1.17-3.63-1.71-1.3-4.35
					C662.74,383.32,663.1,384.51,663.57,386.09z M664.58,355.1c0.14,0.86,0.58,2-0.35,2.52c-1.02,0.56-1.13-0.86-1.77-1.25
					c-0.38-0.23-0.7-0.56-1.04-0.86c-3.76-3.32-3.68-4.79,0.45-8.36C662.99,349.72,664.14,352.29,664.58,355.1z M658.01,338.07
					c1.16,2.52,2.3,4.96,3.77,8.15c-2.33-1.41-3.96-2.42-5.62-3.39c-0.75-0.43-0.71-0.98-0.26-1.55
					C656.67,340.3,656.87,338.93,658.01,338.07z M653.26,328.95c1.16,1.22,2.14,2.52,2.23,4.32c0.01,0.01,0.03,0.01,0.04,0.02
					c0.06-0.01,0.12-0.03,0.17-0.04c-0.07,0.04-0.14,0.07-0.21,0.1c0-0.03,0-0.06-0.01-0.08c-0.47-0.23-0.91-0.53-1.4-0.65
					C651.68,332,651.7,330.75,653.26,328.95z M636.36,305.31c1.93,1.6,3.66,3.13,5.51,4.52c1.54,1.16,1.89,2.22,0.74,4
					c-2.09,3.23-1.98,3.3,1.11,5.38c0.3,0.21,0.58,0.45,0.9,0.6c2.58,1.16,2.85,2.66,1.16,5.02c-1.99,2.8-1.83,2.92,1.09,4.46
					c4.24,2.22,4.4,2.57,1.39,6.79c-1.02,1.43-1.04,2.03,0.54,2.64c0.41,0.16,0.79,0.43,1.18,0.66c5.27,3.04,5.27,3.04,1.29,8.12
					c-0.56,1.3,0.46,1.78,1.23,2.33c0.95,0.68,1.94,1.27,2.9,1.93c0.6,0.41,1.81,0.61,1.15,1.68c-0.56,0.91-1.21-0.01-1.78-0.33
					c-0.79-0.44-1.52-1.07-2.36-1.27c-2.11-0.49-2.98-1.71-2.66-3.85c-0.47-0.28-0.93-0.56-1.39-0.83c-1.62-0.98-3.9-1.6-4.67-3.04
					c-0.9-1.68,1.41-3.19,2.22-4.83c0.76-1.54,0.12-2.06-0.97-2.73c-4.42-2.71-4.43-2.74-1.9-7.24c0.53-0.94,0.7-1.65-0.41-2.2
					c-0.16-0.08-0.3-0.2-0.45-0.29c-1.75-1.1-4.36-1.82-5.01-3.39c-0.71-1.68,1.47-3.66,2.36-5.52c0.4-0.85,0.31-1.35-0.44-1.81
					c-0.46-0.29-0.9-0.61-1.35-0.9c-5.03-3.21-5.08-3.24-2.09-8.45c0.64-1.1,0.94-1.65-0.37-2.42c-1.54-0.91-2.89-2.15-4.39-3.15
					c-0.77-0.52-1.28-0.9-0.62-1.91c0.64-0.97,1.22-1.16,2.15-0.38c1.25,1.04,2.49,2.14,3.89,2.94
					C638.3,302.96,638.54,304,636.36,305.31z M639.01,378.24c-1.48-1.13-4.32-1.14-4.41-3.04c-0.07-1.38,1.92-2.9,3.07-4.29
					c0.83-1,0.39-1.62-0.45-2.22c-1.47-1.05-2.91-2.14-4.4-3.15c-1.06-0.72-1.59-1.4-0.45-2.55c0.5-0.5,0.8-1.2,1.19-1.81
					c1.94-3.06,2.19-3.1,4.89-0.77c0.34,0.29,0.68,0.59,0.98,0.94c3.89,4.48,4.06,2.81,0.28,7.34c-0.91,1.09-0.82,1.62,0.19,2.32
					c1.41,0.97,2.75,2.05,4.22,2.93c2.09,1.25,1.83,2.39,0.03,3.61c-0.08,0.05-0.15,0.1-0.22,0.15c-2.5,2.03-2.5,2.03,0.27,3.89
					c0.07,0.05,0.16,0.09,0.22,0.15c0.95,1.02,3.19,1.49,2.52,3.23c-1.06,2.73-4.53,3.81-6.62,2.5c-1.45-0.91-2.87-1.85-4.22-2.73
					c1.14-1.27,2.07-2.52,3.21-3.53C640.75,379.94,640.26,379.19,639.01,378.24z M602.35,267.05c-0.42-1.46-2.81-2.33-4.32-3.48
					c-3.68-2.78-3.8-2.88-1.15-6.59c1.42-1.98,1.4-3.02-0.69-4.43c-1.91-1.3-4.92-2.67-4.98-4.6c-0.06-1.8,2.54-3.68,4.01-5.58
					c1.72,1.52,3.39,3.04,5.1,4.5c2.81,2.38,3.07,2.61,0.64,5.4c-1.99,2.28-1.5,3.46,0.73,4.76c0.53,0.31,0.95,0.83,1.43,1.25
					c4.54,3.94,4.54,3.94,0.3,8.87c2.13,1.62,4.14,3.41,6.4,4.79c1.91,1.17,1.76,2.22,0.41,3.54c-2.15,2.12-2.34,4.1,0.56,6.06
					c-1.49-0.82-4.22,0.75-3.8-2.56c0.06-0.53-0.86-0.51-1.32-0.75c-2.1-1.05-4.11-2.25-5.99-3.69c-1.09-0.84-1.33-1.65-0.32-2.69
					c0.06-0.07,0.11-0.15,0.15-0.22C600.41,270.01,602.78,268.54,602.35,267.05z M619.13,299.09c2.11-3.68,2.11-3.67,5.56-1.3
					c0.97,0.66,1.94,1.32,2.93,1.95c0.38,0.24,0.78,0.44,0.79,1.22c-0.69,1.34-1.28,3.04-2.32,4.36c-1.31,1.68-0.95,2.55,0.78,3.37
					c0.64,0.3,1.22,0.78,1.75,1.27c1.08,1.02,3.33,1.38,3.27,2.87c-0.1,2.14-1.88,3.83-3.07,5.65c-0.53,0.83-1.04,0.29-1.57-0.03
					c-1.69-1.03-3.35-2.12-5.09-3.06c-1.08-0.59-1.14-1.24-0.59-2.2c0.31-0.55,0.56-1.13,0.84-1.71c2.13-4.27,2.13-4.27-1.97-7
					C617.26,302.36,617.26,302.36,619.13,299.09z M617.95,292.85c0.55-0.31,1.06-0.41,1.46,0.24c0.26,0.01,0.53,0.02,0.78,0.05
					c0.7,0.09,1.41,0.22,1.73,0.95c0.06,0.15-0.1,0.56-0.27,0.64c-0.75,0.4-1.3-0.18-1.87-0.54c-0.3-0.18-0.53-0.45-0.8-0.67
					C618.63,293.29,618.29,293.07,617.95,292.85z M638.84,342.32c0.73,0.31,1.38,0.85,2,1.36c0.4,0.32,0.88,0.77,0.41,1.35
					c-0.38,0.48-0.77,0.09-1.17-0.09c-1.15-0.51-2.32-0.94-3.49-1.42c-0.25-0.1-0.66-0.22-0.68-0.37c-0.4-3.75-4.05-3.47-6.15-5.06
					c-1.15-0.87-1.73-1.48-0.6-2.7c1.32-1.43,1-4.49,2.9-4.73c1.49-0.19,3.26,1.57,4.85,2.54c0.92,0.57,2.33,0.66,2.44,2.27
					c-0.53,1.11-1.06,2.25-1.62,3.39C637,340.38,637.08,341.58,638.84,342.32z M633.78,327.62c-1.18,2.33-2.39,3.04-4.4,1.03
					c-0.12-0.12-0.31-0.18-0.45-0.3c-1.23-0.97-3.57-1.1-3.58-2.91c-0.01-2.09,1.58-3.8,2.83-5.47c0.21-0.28,0.37-0.64,1.16-0.42
					c0.9,0.67,2.04,1.55,3.22,2.38C635.69,324.12,635.58,324.04,633.78,327.62z M626.49,337.65c-0.13,0.93-0.61,1.11-1.48,0.7
					c-1.52-0.72-3.07-1.4-4.6-2.11c-0.45-0.2-1.22-0.24-0.97-1c0.19-0.56,0.39-1.21,1.05-1.48
					C621.36,333.42,626.47,336.67,626.49,337.65z M618.87,317.71c-0.85,1.16-1.59,2.42-2.4,3.67c2.19,1.36,4.39,2.73,6.58,4.09
					c0.3,0.19,0.88,0.38,0.88,0.54c-0.16,2.43-1.92,4.17-2.76,6.32c-0.45,1.13-1.55,0.09-2.33-0.2c-0.34-0.12-0.66-0.31-0.96-0.5
					c-1.84-1.16-4.58-1.93-5.25-3.58c-0.71-1.73,1.68-3.67,2.87-5.4c0.79-1.17,0.53-1.76-0.47-2.34c-2.04-1.17-4.07-2.34-6.14-3.45
					c-1.02-0.54-1.18-0.91-0.45-2c3.86-5.72,3.75-5.64,9.35-1.93C619.93,314.36,620.37,315.64,618.87,317.71z M616.54,302.8
					c-1.04,1.87-1.95,3.76-3.41,5.28c-0.62,0.64-1.18,0.23-1.64-0.17c-2.06-1.79-5.77-2.21-6.34-4.79
					c-0.35-1.59,1.94-4.08,3.62-5.75c0.12-0.11,0.32-0.17,0.49-0.18c0.6-0.04,7.17,4.9,7.27,5.44
					C616.55,302.71,616.54,302.79,616.54,302.8z M604.34,318.74c-0.49-1.21-0.45-2.44-0.51-3.7
					C606.43,315.94,606.47,316.28,604.34,318.74z M611.3,292.38c-0.14,0.23-0.26,0.48-0.38,0.72c-1.93,3.93-1.93,3.93-5.04,0.97
					c-0.79-0.53-1.58-1.08-2.37-1.61c-2.3-1.51,0-2.66,0.47-3.74c0.67-1.57,1.64-0.67,2.37,0.23c1.14,0.37,2.14,1.05,3.49,0.97
					C611.49,289.81,612.48,290.53,611.3,292.38z M606.55,333.36c-2.57-1.17-4.09-2.42-5-4.42
					C603.53,329.68,605.01,330.96,606.55,333.36z M606.05,336.56c1.53,1.12,2.95,2.08,4.27,3.17c0.79,0.66,2.58,0.92,2.22,2.01
					c-0.55,1.66-1.68,3.21-3.09,4.39c-0.33,0.28-7.1-4.21-6.89-4.52C603.65,339.9,604.85,338.27,606.05,336.56z M606.29,350.99
					c1.08-1.17,1.93-3.92,2.93-3.53c2.42,0.97,4.44,2.97,6.57,4.62c0.66,0.51,0.17,1.1-0.14,1.67c-3.01,5.32-3.24,5.38-8.17,1.86
					c-1.02-0.72-2.07-1.41-3.75-2.55C604.75,352.25,605.62,351.71,606.29,350.99z M607.92,363.94c1.04-0.97,1.82-2.23,2.74-3.36
					c0.32-0.4,0.69-0.75,0.97-1.05c1.48,0.67,2.32,1.76,3.28,2.71c1.11,1.1,3.39,1.92,3.08,3.37c-0.36,1.68-2.1,3.07-3.25,4.57
					c-0.4,0.52-0.86,0.64-1.32,0.07c-1.46-1.78-3.51-2.8-5.25-4.23C607.4,365.4,606.88,364.92,607.92,363.94z M617.45,352.66
					c0.65-1.99,2.27-3.64,3.51-5.43c0.09-0.12,0.3-0.21,0.46-0.23c0.62-0.09,6.08,4.87,6.14,5.67c-0.93,1.74-2.01,3.53-3.45,5.03
					c-0.57,0.59-0.92-0.18-1.28-0.5c-0.82-0.71-1.65-1.4-2.43-2.16C619.44,354.1,617.12,353.65,617.45,352.66z M622.91,360.08
					c0.77-1,1.28-1.33,2.29-0.36c1.42,1.38,2.94,2.66,4.41,4c0.25,0.22,0.43,0.53,0.65,0.81c-0.98,2.07-2.04,3.97-3.45,5.63
					c-0.48,0.56-0.97-0.04-1.41-0.28c-0.4-0.2-0.77-0.47-1.13-0.73C618.81,365.34,618.84,365.37,622.91,360.08z M629.66,351.37
					c0.77-1.21,1.57-1.95,3.02-0.97c0.44,0.29,0.96,0.48,1.46,0.68c4.84,1.95,4.99,2.78,1.18,6.65c-1.38-1.56-2.95-2.88-4.67-4.05
					C629.86,353.14,628.82,352.69,629.66,351.37z M644.47,364.95c-0.68-1.87,1.57-2.75,2.58-4c0.67-0.83,0.32-1.64,0.45-2.44
					c-0.01-0.01-0.02-0.02-0.03-0.03c-0.02-0.02-0.04-0.04-0.06-0.07h-0.27c0.02-0.08,0.04-0.15,0.05-0.23
					c0.07,0.08,0.15,0.15,0.22,0.23h0.11c-0.01,0.03-0.01,0.07-0.01,0.1c2.01,1.9,3.59,4.21,5.43,6.27
					c1.12,1.24-1.05,2.74-1.93,4.04c-0.9,1.32-1.21-0.32-1.85-0.38c-0.24-0.01-0.46-0.26-0.69-0.41
					C647.07,367.06,645.02,366.5,644.47,364.95z M629.4,283.71c0.58-0.89,1.09-1.84,1.81-3.07c1.62,2.88,3.07,5.43,4.82,8.53
					c-2.87-0.94-4.45-2.75-6.42-3.86C628.89,284.9,628.97,284.36,629.4,283.71z M625.44,271.14c1.62,1.61,2.59,3.36,3.32,5.35
					C627.39,275.01,624.26,274.6,625.44,271.14z M612.82,249.94c1.1,1.6,0.13,2.85-0.83,3.88c-0.9,0.96-0.64,1.45,0.16,2.17
					c1.68,1.52,3.26,3.17,4.99,4.63c2.04,1.72,2.15,3.42,0.22,5.22c-1.09,1.02-1.18,1.66,0.23,2.57c1.75,1.11,3.2,2.69,4.94,3.81
					c1.49,0.97,1.5,1.77,0.38,2.96c-0.49,0.52-0.8,1.21-1.25,1.78c-0.74,0.94-0.79,1.56,0.34,2.36c1.84,1.3,3.45,2.93,5.26,4.29
					c1.04,0.78,1.06,1.62,0.58,2.59c-0.5,1.01-1.29,1.02-2.28,0.61c-2.17-0.89-4.37-1.72-6.58-2.47c-1.91-0.64-1.7-1.59-0.78-3.01
					c1.98-3.07,1.93-3.11-1.16-4.94c-0.16-0.1-0.31-0.18-0.47-0.27c-5.2-3.11-5.15-2.42-1.97-7.58c0.63-1.02,0.63-1.49-0.41-2.14
					c-1.77-1.09-3.41-2.37-5.15-3.51c-1.2-0.79-1.7-1.43-0.82-3.03c2.84-5.16,2.84-5.36-2.01-8.48c-2.37-1.52-3.21-2.77-1.19-5.14
					c0.69-0.8,0.99-1.93,1.52-3.03C609.13,245.06,611.08,247.4,612.82,249.94z M603.16,229.89c-0.12,2.65,1.59,4.05,2.61,5.91
					c0.82,1.5,1.69,2.96,2.17,4.61c0.15,0.53,0.47,1.32-0.32,1.69c-0.58,0.26-1.23,0.26-1.76-0.23c-0.53-0.48-1.03-1.01-1.6-1.44
					c-1.35-1.05-3.27-1.77-3.96-3.14c-0.78-1.56,1.26-2.93,1.8-4.53c0.41-1.22,0.53-1.91-0.72-2.64c-0.86-0.5-1.85-1.08-2.22-2.28
					C601.51,226.69,603.22,228.47,603.16,229.89z M591.7,231.13c0.23-1.52-1.63-1.17-1.97-2.43c1.36-0.56,2.98-0.94,4.07-0.07
					c0.82,0.66-0.77,1.59-0.97,2.52c1.8,1.49,3.51,3.07,5.12,4.78c2.11,2.25-0.3,3.37-1.1,4.8c-0.78,1.36-1.97,1.75-3.18,0.29
					c-0.17-0.2-0.41-0.34-0.63-0.5C587.86,236.53,587.86,236.53,591.7,231.13z M572.04,188.72c1.1-0.81,2.22,0.56,3.18,1.29
					c0.79,0.61,1.57,1.26,2.19,2.03c0.64,0.81,2.22,1.48,1.65,2.54c-0.5,0.93-2.09,0.78-3.23,0.97c-0.84,0.15-1.39-0.2-1.74-0.95
					c-0.45-0.99-0.97-1.95-1.36-2.96C572.36,190.67,571.21,189.33,572.04,188.72z M578.55,243.89c1.33,1.41,0.67,3-1.8,5.15
					c-1.57,1.37-2.06,0.07-2.87-0.91c-1.43-1.76-2.81-3.58-4.48-5.09c-1.8-1.62-1.4-2.74,0.29-3.95c0.65-0.47,1.26-1.02,2.04-1.65
					c-2.52-1.04-4.46-2.67-6.18-4.87c1.34-0.76,2.87-0.99,3.76-2.4c0.7-1.11,2.02-0.84,2.89-0.24c1.32,0.91,2.62,1.97,3.59,3.23
					c0.87,1.13-0.4,2.13-0.88,3.12c-0.48,1-1.57,1.09-2.69,1.67C574.81,239.72,576.63,241.86,578.55,243.89z M580.58,257.2
					c0.61,0.75-0.02,1.46-0.57,1.82c-1.01,0.67-1.07-0.36-1.35-0.97c-0.82-1.78-1.66-3.54-2.5-5.31
					C578.33,253.57,579.26,255.58,580.58,257.2z M570.13,186.66c1.14,0.88,0.79,1.46-0.23,1.96c-1.96,0.95-3.8,1.68-5.16-1.05
					c-0.83-1.66-2.03-3.12-2.53-5.38C565.23,183.45,567.78,184.86,570.13,186.66z M560.25,181.43c-3.22,2.39-4.82,1.82-7.51-2.7
					C555.35,179.74,557.92,180.06,560.25,181.43z M469.94,204.78c1.41-1.43,2.3,0.33,3.17,1.69c1.34-2.07,2.58-4,3.81-5.94
					c0.14-0.23,0.29-0.5,0.32-0.75c0.43-3.71,0.43-3.71,4-6.16c0.32,1.69-1.13,2.59-1.51,3.89c2.27,1.65,4,1.41,5.35-1.3
					c0.66-1.34,1.8-2.43,2.8-3.72c-1.33-0.61-2.68-0.29-3.86-1.16c2.31-2.5,5.28-3.7,8.35-5.64c-0.37,1.98-1.6,2.93-2.11,4.23
					c-0.25,0.63-1.49,1.35-0.16,1.92c1.24,0.53,2.29,2.49,3.92,1.05c1.35-1.19,2.43-2.69,3.7-3.98c1.18-1.19,0.85-1.74-0.63-2.12
					c-1.11-0.29-2.18-0.73-4.05-1.38c3.71-1.81,6.66-3.83,10.05-4.3c1.67-0.23,2.74-1.27,4.21-1.67c5.06-1.36,10.23-2.04,15.37-2.87
					c0.59-0.1,1.6-0.18,1.79,0.12c2.64,4.42,5.64,0.97,8.47,0.42c0.84-0.16,2.17-1.11,2.42-0.52c0.83,1.95,3.04,2.63,3.72,4.56
					c0.22,0.61-0.38,1.02-0.8,1.29c-0.91,0.58-1.85,1.13-2.84,1.56c-1.68,0.72-2.09,1.52-0.62,2.96c1.35,1.32,2.68,2.72,3.41,4.9
					c1.48-1.52,3.18-2.4,5.05-2.92c1.46-0.4,1.44-0.97,0.51-2.03c-1-1.16-1.75-2.54-2.75-3.72c-1.49-1.78-1-2.69,1.1-3.12
					c0.96-0.2,1.91-0.48,2.86-0.72c0.55-1.8-1.99-1.22-1.98-2.82c1.96,0.34,3.88,0.67,5.85,1.02c-0.45,1.73-2.56,0.57-2.87,2.12
					c0.86,0.93,1.68,1.9,2.58,2.78c2.45,2.44,2.47,3.17-0.87,4.49c-2.8,1.1-2.45,2.4-1.14,4.42c2.01,3.12,5.46,3.74,8.15,1.36
					c0.8-0.71,0.11-1.11-0.2-1.57c-0.86-1.29-1.81-2.51-2.63-3.82c-0.6-0.95-1.69-2.25-0.15-3.02c1.38-0.68,3.11-1.81,4.66-0.08
					c0.79,0.88,1.57,1.77,2.25,2.73c1.22,1.69,2.27,3.17,4.86,2.93c2.8-0.26,3.18,2.79,4.41,4.52c0.45,0.64,2.17,1.43,0.78,2.57
					c-1.66,1.36-4.41,0.97-5.12-0.59c-0.87-1.9-1.59-3.86-2.43-5.95c-0.83,0.41-1.65,0.89-2.52,1.24c-3.31,1.33-3.23,1.27-1.38,4.62
					c0.48,0.87,2.43,1.77,0.86,3.03c-2.35,1.89-5.67,1.63-6.72-0.25c-0.7-1.27-1.33-2.57-2-3.87c-1.21,0.82-2.24,1.79-3.46,2.27
					c-1.91,0.75-2.88,1.48-1.42,3.61c0.82,1.2-0.21,1.46-1.23,1.59c-1.56,0.2-3.9,1.27-4.45-0.08c-0.78-1.9,1.73-2.51,3.07-3.44
					c0.3-0.2,0.61-0.37,0.99-0.59c-0.64-0.94-1.23-1.85-1.85-2.74c-0.84-1.19-1.5-2.99-2.61-3.34c-0.89-0.29-2.27,1.36-3.54,1.82
					c-1.95,0.69-2.66,1.5-0.99,3.24c0.36,0.38,0.68,0.9,0.81,1.41c0.36,1.35,2.71,2.31,1.26,3.91c-1.28,1.42-5.4,1.03-6.7-0.23
					c-2.64-2.55-2.64-2.55,0.3-4.98c2.66-2.2,2.66-2.2,0.27-4.86c-2.55-2.85-2.55-2.85-5.6-0.49c-2.93,2.26-2.93,2.26-0.32,4.87
					c0.58,0.58,1.18,1.12,1.74,1.71c0.71,0.75,1.13,1.47-0.1,2.17c-0.46,0.26-0.79,0.74-1.22,1.08c-0.97,0.77-1.06,2.78-2.92,2.3
					c-2.11-0.56-3.51-2.14-4.86-3.74c-0.45-0.54-0.06-1.03,0.29-1.45c0.64-0.77,1.26-1.55,1.95-2.28c2.56-2.66,2.58-2.66-0.23-4.99
					c-3.2-2.67-3.2-2.67,0.19-5.41c0.35-0.29,0.66-0.62,1.03-0.88c1.64-1.16,1.57-1.92-0.22-3.07c-3.93-2.53-3.83-2.6-7.28,0.44
					c-1.32,1.16-1.98,2.02,0.03,3.07c0.52,0.27,0.86,1,1.27,1.29c2.52,1.75,1.57,3.19-0.12,4.78c-2.93,2.74-2.88,2.74,0.09,5.45
					c0.89,0.81,2.56,1.54,1.87,2.96c-0.9,1.84-2.09,3.67-4.02,4.64c-0.86,0.44-1.48-0.46-2.11-0.92c-3.35-2.42-3.34-2.43-5.98,0.79
					c-0.17,0.21-0.36,0.41-0.5,0.64c-0.89,1.52-1.78,1.79-3.45,0.77c-3.46-2.1-3.67-1.92-6.08,1.27c-1.21,1.6-5.46,2.37-7.18,1.34
					c-0.63-0.38-0.56-0.83-0.3-1.38c0.39-0.81,0.82-1.62,1.18-2.45c0.55-1.31,2.28-2.93,1.45-3.81c-1.1-1.16-3.23-1.32-4.89-1.97
					c-0.8-0.31-0.85,0.37-1.13,0.75c-0.9,1.17-1.29,2.59-1.91,3.91c-0.94,1.99-1.18,3.35,1.68,3.42c1.01,0.02,1.89,0.68,1.87,1.94
					c-0.02,1.24-1.03,1.32-1.88,1.55c-2.7,0.73-3.26,0.37-3.28-2.33c-0.01-0.78-0.18-1.19-0.99-1.26c-0.53-0.05-1.07-0.19-1.57-0.39
					c-2.32-0.91-3.84-0.73-4.54,2.23c-0.83,3.55-3.88,1.36-6.33,1.61C466.9,208.88,468.16,206.56,469.94,204.78z M464.07,214.86
					c10.78-1.45,21.57-2.85,32.34-4.35c19.24-2.7,38.44-5.56,57.69-8.14c4.47-0.6,8.79-1.79,13.24-2.39
					c1.83-0.31,3.63-0.99,5.62-0.29c-1.87,0.4-3.75,0.8-5.62,1.21c-2.3,0.64-4.6,1.28-6.89,1.92c0.34,1.05,1.3,1.01,2.87,0.97
					c-18.81,4.61-76.55,11.4-99.22,11.75c-1.84,0.46-3.66,0.26-5.37-0.06C460.45,215.27,462.26,215.07,464.07,214.86z
					 M552.22,230.11c4.05,0.08,7.46-1.89,10.58,1.33c1.75,1.8,1.86,2.25-0.38,3.32c-0.64,0.31-1.31,0.55-2.32,0.97
					c1.66,1.17,3.12,2.2,4.58,3.23c-0.09,0.22-0.19,0.44-0.3,0.65c-3.73-1.65-7.67-2.08-12.28-2.13c1.86-1.49,3.7-1.27,5.21-2.21
					C556.38,233.23,554.37,232.12,552.22,230.11z M548.38,236.43c0.4,0.15,0.82,0.29,1.32,0.73c-3.88,1.46-7.81,2.69-11.64,5.36
					c0.63-3.94,4.05-4.43,5.94-6.65c-1.67-1.77-4.18-2.26-6.17-4.16c4.04-1.04,7.9-0.83,11.66-1.38c1.05-0.15,0.87,0.8,0.46,1.27
					c-0.59,0.67-1.39,1.14-2.07,1.72C545.81,235.05,545.88,235.48,548.38,236.43z M494.93,237.93c4.27-0.9,8.05-1.69,11.97-2.52
					c-0.17,2.69-2.62,3.39-3.67,5.31c1.08,0.47,2.11,0.92,3.13,1.37c3.96,1.71,3.9,1.66,6.69-1.63c0.89-1.04,0.61-1.36-0.37-1.94
					c-1.38-0.81-2.89-1.45-4.28-3.12c3.88-0.64,7.43-1.37,11.04-1.78c1.48-0.16,0.84,1.02,0.45,1.7c-0.96,1.67-2.37,2.94-3.85,4.3
					c2.67,2.13,5.31,4.15,7.84,6.31c1.12,0.95,1.52,0.18,2.04-0.56c1.52-2.15,2.89-4.41,4.99-6.24c-2.92-1.75-5.77-3.45-8.62-5.14
					c0.04-0.23,0.07-0.45,0.11-0.68c3.33-0.38,6.67-0.81,10.01-1.11c1.3-0.12,3.16-1.23,3.78-0.1c0.84,1.54-1.19,2.35-2.16,3.32
					c-2.92,2.93-2.94,2.92,0.71,5.09c0.38,0.23,0.77,0.48,1.18,0.67c1.41,0.67,1.92,1.35,0.5,2.69c-1.71,1.61-3.33,3.36-4.81,5.2
					c-1.21,1.49-2.26,1.45-3.49,0.19c-0.07-0.07-0.14-0.11-0.22-0.17c-3.09-2.36-3.17-2.43-5.77,0.41
					c-0.98,1.07-1.69,1.04-2.72,0.34c-0.82-0.56-1.75-0.95-2.56-1.52c-5.93-4.21-12.49-5.09-19.5-4.03
					c-0.71,0.11-1.68,1.1-2.37-0.24c1.85-0.78,3.7-1.57,5.7-2.42C499.3,239.62,496.89,239.8,494.93,237.93z M468.9,223.98
					c-0.52,0.12-1.46,0.31-1.43-0.08c0.06-0.78,0.88-0.45,1.43-0.37c22.61-2.38,45.19-5.11,67.92-6.17
					c0.81-0.04,1.62,0.01,2.42,0.02c1.52-0.84,3.07-0.32,4.22-0.21c-1.17,0.18-2.72,0.42-4.27,0.67
					C515.95,222.1,492.46,223.53,468.9,223.98z M446.85,278.83c2.09-1.14,4.17-2.66,5.64-4.52c0.84-1.07-0.87-2.54-1.61-3.69
					c-0.78-1.22-1.72-0.21-2.56,0.23c-0.11,0.26-0.37,0.39-0.5,0.15c-0.23-0.42-0.08-0.8,0.37-1.02c0.16-0.56,0.32-1.12,0.48-1.68
					c0.22-0.52,0.45-0.63,0.73-0.04c2.82-0.31,3.96-3.15,6.23-4.32c0.71-0.36-0.1-0.88-0.4-1.25c-0.67-0.83-1.36-1.65-2.04-2.48
					c-1.49-0.79-1.42,1.25-2.41,1.35c0.1-3.41,0.61-4.05,2.4-2.96c1.03-1.02,2.11-1.98,3.09-3.05c0.68-0.76,2.77-0.98,2.06-1.99
					c-1.07-1.53-1.44-3.89-4.43-4.54c1.57,0.18,2.27-0.15,2.97-0.76c0.74-0.64,1.6-1.29,2.51-1.54c1.43-0.4,3.03-1.72,4.39,0.23
					c1.41,2.03-0.13,3.18-1.29,4.42c-3.01,3.2-3.02,3.19,0.64,6.96c1.64-1.52,3.22-3.11,4.93-4.54c1.62-1.36,0.14-2.35-0.4-3.22
					c-2.1-3.41-2.17-3.37,1.33-5.6c1.25,2.7,2.06,5.39,1.05,8.37c-0.12,0.34-0.2,0.72-0.17,1.08c0.1,1.13-0.19,2.57,1.11,3.12
					c1.35,0.56,2.05-0.84,2.79-1.57c0.82-0.8,1.26-1.98,1.88-2.99c0.86-1.37,0.47-2.29-1.05-2.57c-2.04-0.37-1.62-1.51-1.31-3.02
					c0.7-3.4,2.89-4.9,5.95-5.75c2.11-0.59,2.58,0.43,2.1,2.04c-0.55,1.81-1.36,3.59-2.36,5.2c-0.91,1.45-1.06,2.12,0.71,2.99
					c1.85,0.9,3.11,1.84,3.96-1.09c0.6-2.08,2.27-3.64,3.96-5.36c-1.15-0.45-2.06-0.78-2.94-1.16c-2.37-1.05-2.45-1.58-0.38-3.27
					c2.73-2.23,6.22-1.94,9.59-3.26c-0.44,2.41-2.06,3.4-3.14,4.79c-0.53,0.7-1.57,1.27-1.33,2.25c0.32,1.35,1.74,0.29,2.64,1
					c-2.87,2.24-4.95,5.87-7.73,7.36c-3.62,1.95-3.47,5.58-5.72,7.85c-0.9,0.91-0.46,1.34,0.56,1.63c1.82,0.52,1.83,1.55,0.94,3.06
					c-1.16,1.96-2.35,3.88-3.93,5.54c-0.92,0.98-1.71,1.19-2.56-0.1c-1.18-1.8-2.35-2.31-3.81-0.14c-0.69,1.02-1.82,1.76-2.76,2.61
					c-0.27,0.24-0.82,0.43-0.83,0.64c-0.03,5.21-4.8,2.69-6.93,4.47c0.5-1.72,2.09-2.27,3.23-3.28c1.42-1.25,1.23-3.37-0.54-5.53
					c-1.44-1.76-1.85,0.38-2.7,0.75c-0.64,0.27-1.14,0.87-1.73,1.3c-3.26,2.4-3.31,2.41-1.62,6.15c0.5,1.11,0.31,1.62-0.76,2.09
					c-1.15,0.5-2.25,1.16-3.36,1.76c-1.94,1.07-3.91,2.67-5.32-0.71c-0.22-0.52-0.87-0.66-1.1,0.18
					C445.15,279.29,445.34,279.66,446.85,278.83z M473.17,363.03c-2.57-3.09-2.57-3.09-5.27-0.08c-3.23,3.6-3.23,3.6-6.34,0.04
					c-2.92-3.34-2.92-3.34,0.04-6.8c2.93-3.4,2.93-3.4,5.67-0.1c3.11,3.77,3.1,3.76,6.63,0.25c0.57-0.56,1.21-1.05,2.17-1.89
					c0.46,3.46,2.16,6.64,1.37,9.59c-0.75,2.82,0.32,4.65,1.44,6.6c1.5,2.62,1.14,4.56-1.2,6.32c-0.69,0.53-1.19,1.31-1.92,2.14
					c-1.02-1.35-1.73-2.69-2.79-3.62c-2.41-2.11-1.94-3.74,0.14-5.82C476.16,366.6,476.04,366.48,473.17,363.03z M470.28,373.02
					c-0.51,0.53-1.04,1.13-1.6,1.7c-4.88,4.98-5.67,5.17-8.93-0.92c-1.56-2.91,2.64-4.27,4.05-6.43c0.9-1.39,1.86,0.11,2.48,0.81
					C467.67,369.71,468.93,371.37,470.28,373.02z M467.13,315.68c-2.12-2.07-3.53-4.3-5.56-5.9c-0.89-0.7,0.02-1.08,0.43-1.41
					c1.53-1.24,3.1-2.44,5.16-4.04C467.09,308.35,467.64,311.79,467.13,315.68z M466.91,316.6c-0.83,2.33-2.06,3.78-3.09,5.35
					c-0.43,0.64-0.87,1.28-1.57,0.23c-0.45-0.66-1.71-1.16-0.52-2.14C463.21,318.82,464.49,317.27,466.91,316.6z M461.62,343.81
					c0.92-1,2.4-1.91,2.57-3.03c0.13-0.88-1.31-2.06-2.16-3c-1-1.1-1.02-2.03,0.14-2.99c0.34-0.29,0.61-0.67,0.94-0.98
					c1.07-1.05,1.6-3.23,3.01-3.12c1,0.07,1.75,2.12,2.8,3.07c1.08,0.96,1.18,1.58,0.05,2.56c-1.49,1.31-2.84,2.78-4.29,4.21
					c1.17,1.44,2.34,2.71,3.3,4.12c1.51,2.21,2.97,2.17,4.61,0.21c0.32-0.4,0.7-0.75,1.28-1.37c0.66,2.93,1.56,5.47,1.54,8.58
					c-1.82-1.92-3.44-3.65-5.08-5.39c-0.51,0.6-0.89,1.1-1.32,1.57c-4.61,5.03-4.57,4.99-9.17,0.01c-0.9-0.97-0.99-1.6-0.1-2.48
					C460.38,345.13,461,344.47,461.62,343.81z M471.99,332.85c0.77,1.62,0.77,3.28,1.2,5.28
					C471.57,336.39,469.49,335.2,471.99,332.85z M466.57,291.16c-1.07-1.74-2.3-3.15-2.74-4.77c-0.19-0.7,1.48-1.6,2.51-2.16
					C467.1,286.3,467.17,288.13,466.57,291.16z M444.74,281.37c0.13-0.21,0.24-0.18,0.35-0.1c0.06-0.02,0.14,0,0.26,0.14
					c-0.09-0.01-0.17-0.08-0.26-0.14c-0.15,0.06-0.23,0.37-0.4,0.33C444.69,281.6,444.71,281.43,444.74,281.37z M442.84,304.99
					c1.33-1.2,1.21-2.2,0.43-3.54c-0.98-1.69-1.33-3.26,0.54-4.81c2.54-2.1,3.64-1.97,5.29,0.94c0.39,0.68,0.38,1.18-0.12,1.7
					c-0.51,0.51-1.1,0.96-1.54,1.52c-0.79,1.02-2.82,1.43-2.4,2.96c0.56,2.03,2.22,4.43,3.84,4.61c2.24,0.24,3.51-2.79,5.49-4.05
					c1.21-0.77,0.1-1.59-0.44-2.22c-0.82-0.97-1.71-1.88-2.61-2.77c-0.9-0.89-1.13-1.6,0.08-2.51c1.08-0.81,2-1.83,2.89-2.85
					c0.72-0.82,2.32-1.6,0.2-2.82c-0.79-0.46-0.58-1.54,0.3-2.04c1.8-1.03,3.65-1.99,5.49-2.95c0.43-0.23,0.95-0.23,1.15,0.26
					c0.09,0.23-0.09,0.71-0.3,0.95c-0.59,0.69-1.34,1.25-1.88,1.97c-0.78,1.02-2.69,1.99-2.13,3.04c1.08,2.02,2.52,4.01,4.66,5.2
					c0.69,0.37,0.97-0.29,1.33-0.59c1.03-0.87,2.01-1.81,3.45-3.12c0.54,3.05,0.77,5.68,0.2,8.72c-4.33-5.01-4.24-4.91-8.99-0.89
					c-1.84,1.57-2.11,2.24-0.22,4.2c3.83,3.96,4.76,2.97-0.16,7.17c-2.12,1.81-2.36,3.05-0.14,4.73c0.64,0.49,1.03,1.3,1.68,1.77
					c1.18,0.87,0.86,1.56-0.03,2.36c-0.8,0.73-1.47,1.64-2.33,2.28c-1.81,1.33-3.53,2.53-0.9,4.73c0.74,0.62,0.23,1.33-0.28,1.9
					c-0.67,0.73-1.36,1.45-2.06,2.16c-1.65,1.67-3.41,1.27-4.31-0.91c-0.3-0.73,0.22-0.99,0.57-1.33c0.71-0.69,1.44-1.37,2.21-2.01
					c1.83-1.55,1.8-2.99,0.17-4.8c-2.66-2.95-3.07-3.06-5.87-0.32c-0.97,0.94-1.98,1.84-3.36,3.12c0.56,0.37,1.16,0.63,1.6,1.08
					c4.08,4.12,4.07,4.13-0.23,8.07c-1.01-0.75-0.86-2-1.05-2.99c-0.83-4.2-1.47-8.44-2.17-12.67c-0.18-1.1-0.38-2.32,0.61-3.07
					c2-1.49,1.25-2.82,0.22-4.53C439.19,308.38,439.21,308.27,442.84,304.99z M457.44,358.75c1.13,0.97,0.69,1.58-0.13,2.37
					c-1.62,1.57-4.17,3.15-4.07,5.17c0.09,1.73,2.43,3.4,3.88,4.99c1.13,1.23,1.15,2.28-0.08,3.37c-0.07,0.06-0.13,0.12-0.19,0.19
					c-1.45,1.49-2.77,4-4.39,4.22c-1.88,0.25-2.43-2.96-4-4.27c-0.42-0.34-0.79-0.75-1.18-1.13c-1.86,0.53-2.37,2.78-4.35,3.55
					c-0.32-2.33,0.85-4.14,1.88-5.74c1.05-1.63,1.42,1.11,2.47,0.85c2.12-1.39,2.97-3.86,4.65-5.63c0.42-0.44,0.3-0.86-0.02-1.18
					c-3.03-3.01-1.57-6.49-0.82-9.75c0.79-3.42,0.43-7.14,2.43-10.27c0.42-0.66,0.71-2.09,1.36-1.73c1.2,0.67,2.13,1.89,3.04,3
					c0.68,0.83-0.27,1.35-0.73,1.76c-1.7,1.49-3.07,3.34-5.56,4.84C453.66,355.28,455.49,357.09,457.44,358.75z M439.15,413.57
					c-0.27-2.33-0.54-4.54-0.77-6.75c-0.06-0.51-0.17-1.16,0.43-1.43c0.57-0.26,0.99,0.23,1.44,0.5c0.07,0.05,0.12,0.13,0.19,0.19
					C444.55,409.25,444.55,409.25,439.15,413.57z M444.56,399.25c-1.55,1.38-3.05,2.82-4.57,4.23c-0.4,0.37-0.84,0.83-1.39,0.6
					c-0.58-0.24-0.52-0.92-0.49-1.45c0.19-3.53,0.42-7.04,1-10.56c0.63-3.84,1.26-7.65,2.3-11.44c1.36,1.32,2.69,2.52,3.88,3.84
					c0.82,0.91,1.35,0.86,2.13-0.02c1.26-1.42,2.64-2.73,3.96-4.09c0.8-0.83,1.54-0.81,2.22,0.16c0.16,0.22,0.35,0.41,0.52,0.62
					c4.13,5.07,4.06,5.51-1.09,9.7c-1,0.8-1.51,0.79-2.37-0.23c-5.05-6.04-3.41-5.47-9.43-0.57c-0.56,0.45-1.07,0.97-1.64,1.48
					c1.68,1.88,3.3,3.78,5.02,5.57C445.43,397.93,445.41,398.49,444.56,399.25z M451.37,411.65c-1.1,0.42-2.12,2.41-3.65,0.69
					c-0.24-0.27-0.46-0.56-0.66-0.87c-0.58-0.93-2.54-1.65-1.83-2.55c1.43-1.8,3.5-3.09,5.41-4.66c1.57,1.65,3.72,2.98,4.32,4.82
					C455.41,410.47,452.78,411.12,451.37,411.65z M456.33,399.07c-0.51,0.5-1.05,1.01-1.64,1.4c-1.49,1-2.45,3.58-4.13,3.17
					c-1.41-0.34-2.32-2.61-3.59-3.87c-1.26-1.25-1.28-2.24,0.1-3.34c0.63-0.5,1.1-1.21,1.73-1.71c1.03-0.81,1.56-2.88,3.28-2.08
					c2.25,1.06,3.28,3.51,5.1,5.35C456.86,398.41,456.64,398.79,456.33,399.07z M462.44,406.78c-1.47,0.78-2.84,2.01-5.09,1.47
					c1.47-1.29,2.74-2.28,3.88-3.4c0.89-0.89,1.53-1.1,2.31,0.09C464.48,406.38,463.04,406.46,462.44,406.78z M477.29,397.03
					c-1.17,1.1-2.08,2.47-3.2,3.83c-1.34-1.27-2.71-2.3-3.72-3.61c-0.67-0.88,0.64-1.24,1.12-1.76c0.67-0.72,1.36-1.57,2.22-1.92
					c0.95-0.38,1.21-2.84,2.8-1.15C477.72,393.71,479.47,395,477.29,397.03z M478.95,386.95c-1.31,1.14-2.31,2.55-3.32,4.38
					c-1.39-1.48-2.66-2.78-3.87-4.12c-1-1.09-1.88-1.21-2.91-0.01c-0.82,0.97-1.75,1.84-2.67,2.71c-2.53,2.39-2.66,2.55,0.15,4.73
					c2.12,1.65,2.34,2.82,0.01,4.27c-0.22,0.14-0.41,0.35-0.6,0.55c-1.11,1.16-2.22,2.33-3.32,3.48c-1.05-1.22-1.96-2.59-3.17-3.64
					c-1.41-1.22-1.25-2.01,0.06-3.17c1.48-1.3,3.62-2.68,3.9-4.3c0.3-1.76-2.11-3.14-3.42-4.6c-1.08-1.2-0.82-1.9,0.09-2.99
					c4.17-4.94,4.16-4.98,8.3-0.1c1.32,1.57,2.48,2.36,3.72-0.01c0.12-0.24,0.32-0.43,0.5-0.64c3.36-4.14,3.81-4.08,6.88,0.22
					C480.27,385.09,480.09,385.95,478.95,386.95z M487.59,329.59c-2.76-2.89-4.01-6.18-5.07-9.49c-2.6-8.07-3.65-16.33-2.51-24.82
					c0.47-3.53,0.56-7.11,0.38-10.66c-0.12-2.29,0.74-3.92,2.35-5.5c5.86-5.71,12.78-6.04,20.16-4.42
					c5.75,0.78,11.37,1.85,15.05,7.12c0.13,0.18,0.45,0.22,0.69,0.32c0.6-4.26-1.23-8.03-2.41-11.91c-0.52-1.71-2.51-1.95-4.04-2.33
					c-6.13-1.55-12.36-2.31-18.69-2.12c-0.63,0.02-1.26,0.02-1.88,0.03c-1.06,0.34-2.12,0.69-3.29,1.07
					c2.68-9.81,5.62-14.16,14.2-14.01c4.33-0.67,8.13,0.95,11.88,2.82c2.58,1.29,5.1,2.7,7.9,3.5c4.27,1.21,8.21,0.64,11.79-2.04
					c3.39-2.55,6.6-5.39,10.13-7.73c4.65-3.1,9.72-4.14,15.11-1.9c3.26,0.67,5.11,3.2,6.9,5.66c1.47,2.02,2.61,4.3,3.75,6.86
					c-4.1-2.59-8.51-2.28-12.91-2.03c-5.16,1.6-10.33,3.15-15.42,4.95c-3.02,1.08-4.73,2.74-4.67,6.11
					c0.01,0.87-0.41,1.75-0.64,2.63c-0.58,5-0.67,9.93,1.98,14.47c0.23,0.4,0.19,1.14,0.98,0.98c0.06-1.07,0.11-2.14,0.16-3.22
					c1.51-6.09,8.99-12.17,15.07-12.21c4.51-0.04,9.05-0.2,13.01,2.6c0.05-1.39-1.19-1.62-2.01-2.07
					c-4.45-2.45-9.29-3.05-14.43-2.82c6.41-5.29,18.23-5.52,24.74-0.66c0.92,0.69,1.16,1.57,1.24,2.6c0.5,6.23,2.01,12.23,3.8,18.19
					c2.74,9.1,1.7,24.17-2.06,31.58c-0.89-1.93-0.37-4.21-2.17-6.61c-0.06,6.15-0.81,11.37-3.95,16.32
					c-0.28-2.93-0.51-5.56-0.79-8.17c-0.27-2.52-1.03-4.75-3.62-5.79c-3.36-1.35-6.58-3.1-10.11-4.02c0.4,1.03,0.38,1.05,1.04,1.55
					c2.08,1.6,4.16,3.17,6.66,5.06c-7.13,2.3-14.16,2.95-21.43,3.2c5.15-2.92,9.15-6.31,6.07-13c-1.6-1.68-3.19-3.36-4.79-5.04
					c-0.82,0.97,0.17,1.65,0.44,2.39c0.61,1.72,1.29,3.4,1.28,5.26c-0.01,2.91-0.82,3.91-3.62,3.59c-3-0.34-4.57,1.42-6.26,3.4
					c-2.69,3.15-5.18,3.49-8.11,1.31c-0.97-0.06-1.65-0.67-2.32-1.29c-1.55-1.43-3.32-1.84-5.25-0.98c-2.79,1.25-4.47,0.31-5.2-3.17
					c-0.43,4.46-0.32,4.57,9.95,10.38c-7.63,0.9-14.97,0.48-22.82,0.97c2.12-2.88,4.03-5.44,5.89-8.03c0.51-0.7,1.49-1.14,1.34-2.25
					c-2.72,0.55-4.42,2.81-6.69,4.13c-3.07,1.79-5.47,4.63-8.88,5.93c-1.18,3.72,0.02,7.38,0.42,11.46
					c-3.83-3.92-5.83-8.49-7.96-13.19C487.86,326.08,487.75,327.63,487.59,329.59z M534.21,336.65c-6.4,0.63-12.73,0.06-19.05-1.05
					c11.46,0.24,22.85-0.28,34.1-2.88c-3.01,1.7-6.23,2.59-9.4,3.67c3.64,0.21,6.89-1.46,10.31-2.2c0.95-0.21,2.21-1.02,2.79-0.38
					c0.79,0.86,0.21,2.25-0.08,3.4c-0.51,2.01-1.91,3.3-3.66,4.16c-8.96,4.41-18.28,5.23-27.88,2.61c-2.39-0.65-3.96-2.06-4.29-4.67
					c-0.15-1.18,0.1-1.68,1.42-1.51c5.31,0.67,10.61,0.28,15.92-0.15C534.91,337.19,534.37,336.96,534.21,336.65z M527.78,440.21
					c-14.58-3.19-26.33-10.58-34.31-23.61c-0.43-0.69-0.79-1.4-0.77-2.29c0.22-8.83,0.43-17.65,0.64-27.08
					c2.05,2.33,3.67,4.21,5.34,6.06c8,8.89,17.41,15.57,28.95,18.81c1.55,0.43,1.96,1.12,1.96,2.63
					c-0.04,7.95-0.01,15.91,0.06,23.86C529.66,440.07,529.23,440.54,527.78,440.21z M525.11,355.47c0.26,2.06,2.66,2.31,3.31,4.05
					c0.79,0.23,0.64,0.81,0.38,1.29c-1.73,3.15-4.11,5.54-7.71,6.36c-1.31,0.31-2.48-0.15-3.52-0.97c-1.29-1.02-2.38-2.23-3.26-3.63
					c-5.34-8.44-9.43-17.42-11.67-27.23c-0.1-0.42-0.08-0.89-0.14-1.58c3.62,2.17,6.68,4.7,9.63,7.35
					c10.21,9.19,21.65,10.76,34.23,6.02c4.38-1.66,7.41-5.09,10.69-8.2c2.73-3.36,5.46-6.72,8.18-10.08
					c0.23,0.09,0.45,0.17,0.69,0.25c-0.09,7.64-1.67,15.04-4.19,22.27c-1.3,1.73-0.83,4.01-1.84,5.85c-0.74,1.35-1.11,2.9-1.91,4.21
					c-2.19,3.56-5.37,4.11-8.68,1.57c-1.06-0.82-2.26-1.52-2.81-2.86c-1.46-0.48-1.6-0.98-0.38-2.13c1.6-1.49,3.22-3.1,3.53-5.5
					C541.79,356.36,533.59,357.04,525.11,355.47z M584.11,389.4c-5.18,10.5-14.24,16.43-24.34,21.09
					c-5.45,2.52-11.22,3.94-17.11,4.87c-1.39,0.22-1.76,0.7-1.73,2.06c0.07,3.56-0.01,7.13-0.04,10.69
					c0.25-0.08,0.51-0.17,0.76-0.25c1.28-4.25,4.79-5.87,7.29-3.32c1.19,1.21,2.01,2.69,1.23,4.42c-0.9,2.03-2.37,3.4-4.79,3.23
					c-0.1,1.98,1.22,3.08,2.52,4.19c2.42-0.18,4.86,0.15,7.41-0.48c-3.85,2.93-14.41,5.66-18.92,5.09
					c-1.13-0.15-1.02-0.76-1.02-1.49c-0.01-8.5,0.03-17-0.06-25.5c-0.01-1.9,1.14-1.68,2.29-1.79c11.52-1.13,22.14-4.77,31.71-11.48
					c5.39-3.78,9.88-8.49,14-13.61c0.49-0.61,0.79-1.44,1.82-1.76C585.65,386.98,584.7,388.2,584.11,389.4z M593.26,275.23
					c-2.19-1.76-4.34-3.56-6.4-5.48c-1.64-1.53-2.12-2.85,0.13-4.21c0.51-0.31,0.91-0.81,1.44-1.3c-1.91-1.8-3.72-3.55-5.59-5.26
					c-0.81-0.75-0.79-1.21-0.09-2.2c3.36-4.75,3.66-3.46-0.25-8.04c-1.63-1.92-2.43-3.14-0.69-5.59c2.09-2.97,1.48-4.34-2.59-7.68
					c-1.49-1.23-2.22-2.2-1.32-4.27c0.92-2.1,3.15-3.12,4.73-1.44c1.73,1.84,3.28,3.91,4.53,6.1c0.79,1.4-0.87,2.28-1.75,2.93
					c-1.2,0.88-1.27,1.42-0.32,2.5c1.08,1.22,1.93,2.64,2.95,3.91c2.37,2.95,2.33,3.67-0.49,6.15c-0.47,0.41-1,0.75-1.68,1.25
					c2.43,1.81,4.4,3.88,6.37,5.94c2.15,2.25,2.14,2.84-0.29,4.84c-0.68,0.56-1.53,0.91-2.32,1.38c2.33,2.22,4.68,4.42,6.97,6.69
					c0.6,0.6,2.11,1.35,0.75,2.31C596.22,274.56,595.51,277.04,593.26,275.23z M595.69,334.3v-7.05
					C598.77,329.96,598.77,330.14,595.69,334.3z M595.74,341.93c-0.33-1.51-0.35-3.03,0.01-4.79c2.06,0.87,3.06,2.91,4.88,3.86
					c0.74,0.4,0.4,1.08,0,1.63c-0.64,0.87-1.27,1.75-1.91,2.63c-0.35,1.13-1.78,1.89-1.08,3.36c0.97,0.81,1.94,1.62,2.91,2.44
					c2.39,2.01,1.88,5.54-0.97,6.81c-0.36,0.16-0.56,0.18-0.92-0.05c-3.49-2.33-4.2-5.65-1.91-9.17
					C596.22,346.44,594.43,344.42,595.74,341.93z M597.59,360.91c1.3-1.61,2.22-1.87,3.36-0.02c0.81,0.69,1.64,1.36,2.43,2.07
					c2.48,2.2,2.47,2.2-0.27,4.38c-0.71,1.61-1.65,1.68-2.81,0.44c-0.75-0.79-1.49-1.64-2.37-2.23
					C595.73,364.09,596.13,362.72,597.59,360.91z M600.73,371.1c0.29-0.2,0.57-0.56,0.9-0.21c1.5,1.56,2.98,3.15,4.46,4.73
					c0.11,0.12,0.12,0.33,0.17,0.47c-0.09,1.08-2.33,2.11-3.22,1.5c-0.82-0.56-1.6-1.16-2.41-1.75
					C598.27,374.13,598.31,372.8,600.73,371.1z M603.66,384.78c-1.17,0.45-1.09-0.75-1.99-1.62c1.3,0.2,2.22-0.26,2.58,0.79
					C604.31,384.15,603.93,384.68,603.66,384.78z M608.46,393.36c-0.66,0.79-1.03,1.92-2.35,2.36c-1.86-1.49-4.03-2.77-5.57-4.61
					c-0.81-0.97,1.02-2.06,1.67-3.07c0.7-1.09,1.2,0.15,1.64,0.5c1.34,1.08,2.61,2.25,3.88,3.4
					C608.15,392.33,609.12,392.57,608.46,393.36z M612.48,373.05c1.18-1.57,2.03-1.62,3.38-0.37c1.38,1.28,2.9,2.42,4.36,3.61
					c0.27,0.22,0.54,0.42,0.89,0.69c-1.3,1.49-2.46,2.96-3.78,4.28c-0.9,0.89-1.34-0.42-1.97-0.72c-0.64-0.31-1.22-0.75-1.83-1.15
					C609.53,376.76,609.62,376.83,612.48,373.05z M622.27,394.31c-0.99,1.27-1.91,2.91-3.27,4.02c-0.76,0.61-1.51-0.94-2.35-1.37
					c-0.71-0.36-1.31-0.94-1.97-1.41c-3.29-2.36-3.22-2.31-1.05-5.69c0.93-1.44,1.6-1.92,3.04-0.59c1.44,1.35,3.13,2.41,4.71,3.61
					C621.8,393.19,622.36,393.38,622.27,394.31z M628.01,389.73c0.76-0.87,0.97-1.25-0.02-2.07c-1.29-1.06-3.53-1.57-3.64-3.32
					c-0.11-1.57,2.25-2.15,2.99-3.7c-0.38-0.29-0.71-0.58-1.09-0.82c-4.04-2.63-4.37-4.13-0.43-7.24c2.38-1.88,3.5,2.05,5.59,2.63
					c1.28,0.35,0.66,1.36,0.05,2.15c-0.84,1.08-2.92,1.63-2.43,3.14c0.33,1.02,2,1.72,3.18,2.33c2.48,1.28,2.27,2.2,0.04,3.7
					c-3.23,2.16-3.12,2.32,0.02,4.49c0.22,0.15,0.45,0.31,0.66,0.48c3.57,2.49,3.52,2.68,0.77,6.02c-1.11,1.35-2.03,1.44-3.28,0.42
					c-0.35-0.28-0.76-0.49-1.15-0.72C624.21,394.15,624.18,394.11,628.01,389.73z M632.82,406.58c-0.08-0.04-0.17-0.09-0.25-0.13
					c-3.51-1.92-3.67-3.56-0.8-6.37c0.9-0.89,1.3-0.07,1.8,0.27c2.17,1.46,4.3,2.97,6.55,4.54
					C637.14,408.91,637.14,408.91,632.82,406.58z M642.95,402.72c1.01-1.47,3.13-3.04,2.65-4.45c-0.45-1.3-2.87-1.89-4.42-2.79
					c-0.15-0.1-0.35-0.15-0.45-0.29c-0.73-0.92-3.31-0.53-2.11-2.8c1.43-2.69,3.7-3.65,5.66-2.57c0.87,0.48,1.67,1.08,2.51,1.6
					c3.62,2.25,3.65,2.43,0.58,5.6c-0.37,0.38-0.9,0.59-1.46,0.95c2.09,1.84,4.1,2.86,6.04,4c1.38,0.81,1.98,1.77,0.85,3.26
					c-0.71,0.94-1.36,1.92-2.01,2.91c-0.47,0.72-0.95,0.97-1.78,0.46c-1.85-1.13-3.73-2.2-5.62-3.26
					C642.15,404.64,642.15,403.9,642.95,402.72z M658.09,416.33c-0.32,0.69-0.91,0.39-1.39,0.2c-2.43-0.95-4.86-1.92-7.29-2.89
					c-0.64-0.26-1.15-0.7-0.82-1.46c0.4-0.89,1.1-1.56,1.91-2.1c2.29,2.04,5.24,2.85,7.55,4.7
					C658.5,415.13,658.32,415.84,658.09,416.33z M678.7,425.64c-0.29,0.85-1.07,0.38-1.59,0.16c-2.72-1.14-5.46-2.28-8.13-3.53
					c-2.23-1.05,0.22-1.87,0.25-2.83c-0.05-0.03-0.09-0.05-0.14-0.08c0-0.05,0-0.1,0.01-0.14c-2.32-1.71-4.99-2.66-7.64-3.66
					c-1.45-0.54-1.74-1.06-0.94-2.52c0.98-1.79,3.29-3.59,2.53-5.39c-0.61-1.45-3.2-2.04-4.93-2.99c-2.93-1.63-3.04-1.71-0.92-4.5
					c1.24-1.63,1.18-2.33-0.69-3.38c-5.53-3.12-5.47-3.21-1.35-8.24c0.05-0.06,0.05-0.15,0.08-0.29c-1.39-1.28-2.94-2.39-4.68-3.14
					c-1.23-0.54-1.21-1.04-0.38-1.91c0.5-0.52,0.86-1.17,1.31-1.73c1.52-1.89,1.09-3.24-0.98-4.35c-0.88-0.48-2.59-0.72-2.25-1.92
					c0.36-1.28,1.52-3.09,2.57-3.26c1.74-0.29,2.99,1.59,4.29,2.75c0.97,0.88-0.12,1.4-0.58,1.98c-1.8,2.32-1.72,2.91,0.66,4.52
					c0.3,0.2,0.61,0.38,0.92,0.56c3.06,1.76,3.06,1.76,0.94,4.53c-0.5,0.65-0.98,1.31-1.61,2.14c1.86,1.27,3.65,2.56,5.52,3.72
					c1.53,0.95,1.91,1.76,0.56,3.33c-2.32,2.69-2.22,2.77,0.94,4.68c0.16,0.1,0.31,0.19,0.46,0.29c4.07,2.45,4.12,2.49,1.56,6.37
					c-0.65,0.98-0.56,1.32,0.4,1.79c1.53,0.75,3.05,1.55,4.52,2.44c3.08,1.87,3.12,2.17,1.21,5.23c-0.59,0.94-1.43,1.78-1.52,2.99
					c0.04,0.03,0.08,0.06,0.12,0.09c0.01,0.04,0.01,0.09,0.01,0.13c2.86,1.54,5.41,3.61,8.44,4.81
					C678.28,424.49,678.92,424.98,678.7,425.64z M693.63,434.47c-2.9-1.35-5.8-2.69-8.7-4.03c-0.35-0.17-0.68-0.47-0.53-0.83
					c1.18-2.98-1.24-3.7-2.98-4.46c-1.96-0.86-2.19-1.69-0.94-3.34c0.63-0.83,0.97-1.88,1.61-3.19c1.91,2.47,3.67,4.73,5.41,7.02
					c0.19,0.26,0.58,0.66,0.19,0.92c-2.84,1.98,0.19,2.66,0.93,3.33c1.62,1.49,3.6,2.58,5.44,3.83
					C693.91,433.96,693.76,434.22,693.63,434.47z M720.15,469.67c-0.99-0.3-1.82-0.87-2.22-1.85c-3.07-7.41-7.82-13.85-11.58-20.97
					c5.8,4.6,10.47,10.4,15.82,15.44c2.4,1.1,3.28,2.85,2.42,5.48c-1.25,3.78-2.43,7.6-3.71,11.64
					C718.38,476.16,719.42,472.9,720.15,469.67z M741.01,557.58c-1.53-4.71-0.78-8.59,1.44-12.86c5.13-9.92,8.42-20.55,10.34-31.58
					c-1.26-0.72-1.7-2.03-2.24-3.24c-2.22-4.98-5.04-9.61-7.82-14.27c-3.18,9.09-6.64,18.05-11.17,27.48
					c-1.08-4.74-1.99-8.74-2.89-12.73c-0.22-0.98,0.42-1.76,0.79-2.57c2.56-5.62,5.33-11.15,7.02-17.15
					c-3.2-3.88-6.6-7.61-8.94-12.14c-1.28,3.08-2.55,6.17-3.94,9.53c-0.97-1.77-1.58-3.23-0.98-5.04c1.7-5.2,3.23-10.45,4.21-16.11
					c1.57,0.83,2.45,1.97,3.01,3.42c3.22,3.15,6.44,6.29,9.65,9.44c2.22,1.96,5.26,3.17,5.9,6.59c2.04,0.2,2.65,2.22,3.98,3.31
					c1.7,1.4,3.18,3.06,4.76,4.6c2.45,1.02,3.2,2.78,3.16,5.53c-0.28,18.25-6.72,34.95-12.36,51.86c-0.18,0.53-1.05,1.13-0.22,1.61
					c0.71,0.43,1.07-0.37,1.36-0.94c5.64-10.59,9.77-21.62,11.48-33.68c0.9-6.3,1.47-12.58,1.82-18.98
					c1.35,1.19,1.39,1.19,1.34,3.38c-0.25,10.53-1.6,20.93-3.98,31.18c-2.99,12.88-6.9,25.5-11.12,38.01
					c-0.13,0.4-0.3,0.77-0.69,1.72C743.55,568.1,742.68,562.71,741.01,557.58z M623.77,563.77c0.06-0.44,0.14-1.19,0.37-1.26
					c3.34-1.05,2.13-3.91,2.34-6.12c0.44-4.64,2.56-7.72,6.34-8.93c3.59-1.16,7.45,0.14,9.3,3.11c1.78,2.88,1.34,6.85-1.11,9.63
					c-1.72,1.95-3.92,3.21-6.3,4.09c-3.7,1.38-7.44,2.66-11.53,4.11C623.39,566.64,623.56,565.2,623.77,563.77z M561.49,571.76
					c-3.02-8.53-3.98-17.38-4.37-26.35c-0.09-2.01,0.66-2.5,2.43-2.5c9.36,0.02,18.73-0.03,28.1-0.1c1.2-0.01,1.8,0.22,1.75,1.65
					c-0.25,7.39-0.12,14.8-0.85,22.18c-0.09,0.87-0.41,1.51-1.09,2.43c-0.43-6.98-0.82-13.5-1.23-20.02
					c-2.11,11.94-2.58,24.07-4.83,36.25c-3.93-3.41-5.37-7.87-6.43-12.5c-1.45-6.33-2.3-12.75-2.81-19.22
					c-0.1-1.33-0.31-2.66-1-3.97c-0.21,4.5-0.42,8.99-0.64,13.49c-0.23,0.01-0.46,0.01-0.69,0.03c-1.04-5.51-1.63-11.09-2.24-16.67
					c-0.27,0.01-0.54,0.01-0.82,0.02c0,4.35,0.04,8.71-0.01,13.06c-0.06,4.59,0.53,9.11,1.21,13.63c0.66,4.41,1.96,8.66,3.46,13.46
					C566.17,582.51,563.48,577.39,561.49,571.76z M637.66,646.09c-2.64,0.06-5.33,0.02-7.71-2.25c3.75-1.21,7.11-2.31,10.29-3.34
					c-10.16-4.12-20.77-5.52-31.7-4.3c-1.86,0.2-3.17-0.31-3.26-2.79c-1.31,1.19-2.19,3.08-4.06,1.79
					c-1.34-0.93-1.35-2.69-2.09-4.04c-0.17,0.1-0.4,0.15-0.41,0.23c-0.4,3.51-0.43,3.58-3.79,2.39
					c-7.28-2.57-13.97-6.26-20.29-10.72c-1.42-1-1.88-1.64-0.58-3.06c0.54-0.59,0.97-1.52,0.63-2.52c-2.99,4.16-1.75,3.78-5.98,1.04
					c-1.6-1.02-3.02-2.31-4.53-3.46c-0.89-0.68-1.54-1.54-1.86-2.63c-0.2-0.7-0.59-1.51-0.01-2.06c0.68-0.64,1.34,0.11,1.92,0.44
					c12.06,6.66,25.4,9.91,38.16,14.67c5.99,2.24,12.31,1.31,18.5,1c8.36-0.42,16.7-1.13,25.05-1.71c1.36-0.4,2.78-0.64,4.05-1.22
					c1.5-0.69-0.2-0.73-0.32-1.11c-2.9-0.55-5.8-1.12-8.7-1.65c-4.76-0.88-9.53-0.42-14.25,0.16c-9.89,1.22-19.48,0.64-28.93-2.93
					c-8.5-3.2-17.2-5.83-25.79-8.77c-1.78-0.61-3.54-1.36-5.17-2.31c-3.97-2.28-4.54-6-1.63-9.82c2.07-2.61,4.89-2.53,7.67-1.91
					c2.27,0.5,4.54,1.24,6.66,2.22c11.37,5.25,23.56,6.59,35.75,7.87c10.03,1.05,19.99,0.42,29.87-1.59
					c3.13-0.63,5.98-1.97,8.86-3.23c-0.56-1.4-1.7-0.61-2.5-0.53c-1.91,0.18-3.77,0.15-5.82-0.15c0.75-1.71,2.82-1.36,4.01-2.78
					c-2.72-0.01-5.25-0.43-7.47,0.49c-7.98,3.32-16.28,2.63-24.55,2.28c-8.2-0.35-16.33-1.49-24.43-2.72
					c-2.77-0.42-5.46-1.32-6.21-4.46c-0.65-2.69-0.2-5.27,2.32-7c2.63-1.96,5.63-1.53,8.56-1.32c9.07,0.66,18.15,1.15,27.23,0.26
					c4.11-0.4,8.19-1.08,12.41-1.65c-0.95-1.33-2.25-1.05-3.39-1.29c5-6.1,17.48-5.72,21.81,0.69c0.79,1.16,1.72,2.04,2.81,2.88
					c3.92,2.98,7.41,6.38,9.74,10.82c0.53,1,1.22,1.77,2.12,2.41c2,1.43,3.69,3.18,5.11,5.2c7.93,5.9,6.35,15.6,3.15,21.41
					c-0.54,0.99-1,0.84-1.9,0.31c-3.05-1.82-5.62-0.29-5.75,3.38c-0.03,0.7,0.06,1.21-0.82,1.37c-1.65,0.29-2.75,1.73-4.29,2.23
					c-3.97,1.29-6.55,4.62-9.92,6.8C650.51,642.78,644.63,645.94,637.66,646.09z M659.44,643.62c0.19-0.17,0.62-0.38,0.65-0.34
					c2.27,2.85,2.47-0.63,3.03-1.27c3.42-3.88,6.47-8.14,11.99-9.19c0.17-0.04,0.4-0.08,0.49-0.21c3.01-4.66,6.03-0.97,8.94,0.09
					c2.23,0.82,3.7,2.36,2.03,5.06c-0.87,0.13-1.52-3.23-2.29,0.02c-0.08,0.34-0.95-0.22-1.41-0.45c-4.48-2.22-8.53-1.83-12.48,1.47
					c-4.72,3.96-8.94,8.2-10.6,14.47C656.72,651.07,656.61,646.13,659.44,643.62z M680.84,649.74c-0.27,0.24-0.53,0.49-0.79,0.73
					c-0.2,0.49-0.53,0.61-0.98,0.33c0.19-0.23,0.38-0.47,0.57-0.7c0.25-0.3,0.51-0.6,0.76-0.9c1.41-2.6,3.37-4.91,4.14-7.85
					C684.74,644.75,683.02,647.34,680.84,649.74z M672.96,643.4c-0.32,0.81-0.51,1.91-1.65,2.1c-0.56,0.1-1.09-0.51-0.99-1.04
					c0.2-1,0.84-1.83,1.89-2.05C672.71,642.31,672.98,642.76,672.96,643.4z M669.17,647.7v7.82
					C667.66,652.53,667.61,650.4,669.17,647.7z M662.42,650.17c-0.42,1.56-0.29,3.15-0.41,5.33
					C660.51,653.19,661.39,651.68,662.42,650.17z M702.46,673.54c-2.63,1.19-5.39,2.03-8.31,2.14c-0.7,0.03-1.75,0.13-2.03-0.26
					c-0.54-0.74,0.32-1.47,0.68-2.17c0.39-0.78,0.86-1.52,1.72-2.99c-10.43,5.66-20.5,9.69-32.57,6.6
					c5.33-1.13,10.08-2.02,14.65-3.59c2.83-1.35,5.69-2.58,8.38-4.24c11.22-6.94,15.87-18.26,13.15-32.09
					c-0.87-4.43-2.54-8.55-4.38-12.62c-0.32-0.72-0.98-1.34-0.73-2.56c6.34,1.45,12.56,3.41,16.41,8.99
					c6.71,9.67,8.39,20.37,4.72,31.77C712.03,668.15,707.58,671.24,702.46,673.54z M748.05,661.86c-1.47,5.03-3.54,9.57-9.41,11.94
					c1.63-3.62,2.11-6.88,2.35-11.03c-2.72,2.8-5.28,4.7-8.91,5.01c1.86-2.9,3.36-5.82,3.91-9.09c0.19-1.1,1.05-2.36-0.28-3.37
					c-0.67,2.57-2.11,4.65-3.9,6.53c-4.24,5.77-10.16,8.88-16.96,11.12c1.37-3.56,2.64-6.85,3.91-10.14
					c2.13-8.77,2.37-17.5-0.39-26.2c-2.37-7.48-7.15-12.96-13.92-17.39c3.95-0.35,7.51,0.12,11.01,0.95
					c10.8,2.58,19.78,8.11,26.57,17.1C747.53,644.59,749.23,652.86,748.05,661.86z"/>
				<g>
					<path class="st1" d="M441.42,520.63c-0.1,0.12-0.2,0.23-0.3,0.36c0.13-0.01,0.27-0.03,0.4-0.05
						C441.49,520.84,441.45,520.74,441.42,520.63z"/>
					<path class="st1" d="M440.98,521.65c0.27-0.17,0.24-0.4,0.07-0.6c-0.16,0.2-0.32,0.39-0.48,0.59
						C440.72,521.65,440.89,521.71,440.98,521.65z"/>
					<path class="st1" d="M441.12,520.99c-0.04,0.01-0.07,0-0.11,0.01c0.01,0.02,0.04,0.04,0.05,0.06c0-0.01,0.01-0.01,0.02-0.02
						C441.09,521.01,441.1,521,441.12,520.99z"/>
					<path class="st1" d="M419.14,635.17c0.15,0.03,0.29,0.07,0.45,0.11c-0.09-0.1-0.19-0.21-0.29-0.31
						C419.24,635.04,419.19,635.1,419.14,635.17z"/>
					<path class="st1" d="M419.76,635.37c0.23,0.28,0.5,0.27,0.79,0.08c0.05-0.03,0.02-0.16,0.03-0.24
						C420.31,635.26,420.04,635.31,419.76,635.37z"/>
					<path class="st1" d="M419.59,635.28c0.04,0.03,0.07,0.06,0.1,0.1c0.02,0,0.05-0.01,0.08-0.01c-0.01-0.02-0.02-0.04-0.04-0.06
						C419.68,635.3,419.63,635.29,419.59,635.28z"/>
					<path class="st1" d="M403.47,538.53c0.16-0.07,0.3-0.15,0.46-0.23c-0.08,0.03-0.16,0.07-0.24,0.1
						C403.61,538.45,403.54,538.49,403.47,538.53z"/>
					<path class="st1" d="M417.98,635.15c0,0.04,0.14,0.07,0.21,0.1c0.02-0.12,0.05-0.24,0.07-0.36c-0.09-0.04-0.16-0.07-0.24-0.1
						C418,634.91,417.97,635.03,417.98,635.15z"/>
					<path class="st1" d="M535.94,541.42c-13.07-15.09-29.43-20.61-36.98-23.05c-4.45-1.44-8.23-2.28-10.76-2.78
						c1.12-2.27,2.78-2.8,4.95-2.07c1.68,0.58,3.36,1.17,5.01,1.82c2.64,1.02,4.8,0.07,6.66-1.69c1.85-1.74,1.55-3.85,0.62-5.95
						c-1.03-2.34-2.49-4.4-4.1-6.35c-6.7-8.06-13.61-15.92-21.14-23.24c-0.67-0.66-1.46-1.26-1.89-2.05
						c-0.82-1.5-1.09-2.91,1.43-2.97c1.89-0.04,3.7-0.59,5.37-1.48c2.85-1.51,5.04-4.45,4.19-6.64c-1.33-3.47-2.72-6.77-2.69-10.6
						c0.01-1.23-0.74-2.43-0.58-3.95c0.59-5.48-3.98-8.83-9.12-6.85c-2.55,0.99-5.01,2.21-6.66,4.48c-0.64,0.86-1.25,0.8-2.14,0.76
						c-6.23-0.31-10.06,4.37-8.5,10.42c0.37,1.44,0.84,2.97,1.7,4.12c1.49,2.03-0.8,2.73-1.11,4.1c-0.31,1.35-1.32,0.93-2.25,0.73
						c-9.43-2.05-18.97-3.4-28.61-3.86c-0.77-0.03-1.32-0.22-1.74-0.54c-0.6-0.47-0.85-1.13-0.95-1.46
						c-0.03-0.1-0.05-0.18-0.05-0.19c-0.13-0.55-4.26-3.13-15.67-9.37c-5.16,0.96-8.11,5.74-7.12,9.58c0.72,2.8,3.51,5.01,6.93,5.43
						c5.76,5.77,8.89,13.13,9.35,22.03c0.11,2.35,0.95,4.75-0.32,7.04c0.43,1.28,0.55,2.55,0.05,3.85l0.11,0.12l-0.1,0.14
						c0.14,0.59,0.16,1.17-0.21,1.69c-0.14,0.25-0.29,0.31-0.5,0.2c0.86,0.59,0.26,1.38,0.2,2.11c0.09,2.26-0.72,4.33-1.23,6.53
						c-2.33-0.68-3.05-1.81-2.43-4.28c1.76-7.12,0.83-14.25-0.47-21.38c0.02-0.03,0.07-0.09,0.1-0.16c0.01,0.09-0.04,0.23,0.01,0.28
						c1.72,2.07,1.28,5.19,3.43,7.05c-0.69-7.41-3.25-13.71-7.33-19.13c0.3,4.3,0.18,8.46-0.49,12.31c0.82,3.62,1.29,7.6,1.32,11.88
						c0,0-2.01,22.4-29.58,41.46c-1.4,0.97-3.77,3.57-7.64,4.91c-5.06,3.74-10.83,6.91-16.78,8.06c-0.82,2.14-1.91,4.23-3.35,6.27
						c-2.45,3.45-6.78,7.9-8.73,15.69c-1.12,4.47-1.29,9.23-0.45,14.3c0,0,1.58,10.73,8.97,21.03c14.2,19.8,57.79,40.67,90.83,27.39
						c4.72-1.89,13.33-5.49,18.37-14.14c4.36-7.49,4.82-15.21,3.39-24.26c-1.86-11.73-3.45-23.49-5.35-35.22
						c-0.83-5.1,0.4-9.69,1.8-14.52c1.15-3.95,3.32-5.13,6.85-5.79c19.03-3.54,31.67,1.2,31.67,1.2
						c18.78,5.32,35.09,12.27,45.99,17.38C544.38,552.11,539.42,545.44,535.94,541.42z M484.04,466.45
						c-1.36,2.16-3.51,2.7-6.41,2.12c2.35-1.93,4.74-3.44,4.59-7.19C484.12,463.15,485.19,464.62,484.04,466.45z M479.87,447.18
						c0.73,0.17,1.13,0.57,1.32,1.25c0.16,0.9,0.64,1.74-1.09,1.71c-0.89-0.01-1.25,1.47-1.6,2.43c-0.24,0.66-0.2,1.64-1.32,1.32
						c-1.14-0.32-2.39-0.41-3.26-1.38c-0.06-0.06-0.1-0.16-0.11-0.25C473.64,451.12,478.72,446.91,479.87,447.18z M464.52,455.19
						c0.81-1.4,2.2-1.93,3.81-1.09c2.39,0.07,4.54,0.89,6.46,2.23c1.58,1.1,2.83,2.48,2.12,4.67c-0.54,1.71-1.53,3.1-3.45,3.12
						c-2.15,0.01-4.22-0.32-5.45-2.55c-0.59-1.07-0.22-2.63-1.67-3.24c-0.36,0.94-0.71,1.88-1.15,3
						C463.84,459.26,463.33,457.23,464.52,455.19z M470.18,470.21c0.01,1.56-1.08,2.29-2.07,2.78c-1.51,0.75-2.74-0.13-3.43-1.47
						c-0.71-1.39-0.59-3.1,0.94-3.6C467.6,467.28,468.5,469.6,470.18,470.21z M420.64,471.81c0.87-2.14,2.86-2.61,4.85-2.7
						c9.04-0.41,17.88,1.13,26.73,2.6c1.48,0.24,2.92,0.66,4.41,0.84c2.71,0.3,5.04,1.21,6.7,3.52c0.89,1.24,2.29,1.89,3.67,2.51
						c0.57,0.26,1.44,0.49,1.28,1.26c-0.19,0.95-1.05,0.41-1.64,0.4c-0.82-0.01-1.64-0.09-2.78-0.15c0.95,1.73,2.97,1.9,3.98,3.44
						c-2.1,0.9-4.14-0.33-6.58-0.01c1.57,1.49,2.28,3.12,2.32,5.02c-0.95-0.05-2.64-2.53-2.59,0.81c0.02,0.8-0.82,0.59-1.31,0.45
						c-5.22-1.53-10.22-3.62-14.91-6.4c-0.68-0.41-1.41-1.16-1.32-2.03c0.1-1.05,1.26-0.93,1.99-1.2c1.03-0.38,2.14-0.55,3.38-1.16
						c-4.14-1.11-6.81-4.51-10.36-6.27c-3.76-1.86-8.15-2.06-12.34-0.96c-2.83,0.74-3.23,2.42-1.1,4.41
						c3.96,3.69,8.94,5.78,13.68,8.16c17.99,9.11,36.92,15.85,55.96,22.35c0.75,0.26,1.54,0.4,2.49,0.4
						c-6.58-7.56-12.58-15.52-18.84-23.26c-1.59-1.72-3.18-3.46-4.77-5.19c2.43,1.07,4.1,2.94,5.71,4.87
						c7.91,8.29,15.87,16.53,21.28,27.1c-4.61-1.35-9.22-2.7-13.82-4.06c-19.55-5.74-38.26-13.49-56.09-23.37
						c-3.1-1.72-6.22-3.47-8.54-6.28C420.88,475.41,419.8,473.84,420.64,471.81z M469.7,518.53c3.63-3.12,6.98-6.04,10.39-8.89
						c1.53-1.28,2.98,0.03,4.91,0.22c-4.81,5.77-10.35,9.83-16.9,12.55c-0.55,1.17-1.82,0.97-3.44,1.87
						c1.56-1.06,2.45-1.66,3.33-2.27c2.06-1.51,4.13-3.01,6.6-4.82C472.51,517.06,471.5,518.31,469.7,518.53z M451.92,509.72
						c-3.56,1.7-6.75-0.34-10.21-0.49c0.62,1.78,2.16,2.34,3.45,3.08c1.43,0.8,1.91,1.57,0.68,2.95c-0.93,1.03-1.72,2.2-2.57,3.31
						c-0.22,0.69-0.5,1.32-1.5,1.61c0.02-1.14,0.51-1.94,1.01-2.74c0.04-1.43,0.73-2.94-0.58-4.43c-1.45,3.06-3.44,5.64-5.28,8.32
						c-0.78,1.13-1.67,1.69-3.02,0.95c-0.41-0.22-0.89-0.28-1.33-0.43c-2.59-0.87-5.64-1.66-7.16-3.62
						c-1.7-2.19,1.01-4.71,1.78-7.05c2.24-6.77,2.97-13.67,2.41-21.24c9.52,5.02,19.03,9.08,27.37,15.36
						c-5.1,0.41-9.7-1.47-14.69-2.22C445.4,505.22,448.54,507.39,451.92,509.72z M440.98,521.66c-0.09,0.05-0.26-0.01-0.4-0.01
						c0.16-0.2,0.32-0.39,0.47-0.58c-0.01-0.03-0.03-0.05-0.05-0.07c0.04-0.01,0.07,0,0.11-0.01c0.1-0.12,0.2-0.24,0.3-0.36
						c0.03,0.11,0.07,0.21,0.1,0.31c-0.13,0.02-0.26,0.04-0.4,0.05c-0.01,0.01-0.03,0.03-0.04,0.05c-0.01,0.01-0.01,0.01-0.02,0.03
						C441.23,521.26,441.26,521.48,440.98,521.66z M414.1,523.91c1.52,0.97-0.64,2.43-1.33,3.49c-0.97,1.47-0.96,2.47,0.43,3.49
						c0.65,0.26,1.3,0.53,1.95,0.78c1.33-3.27,3.02-6.35,4.98-9.29c-1.05-0.54-1.93-1.77-3.35-0.79c-0.29,0.46-0.51,0.98-0.89,1.34
						c-0.5,0.48-0.72,1.87-1.78,0.95c-0.87-0.74-0.05-1.42,0.52-1.99c0.53-0.98,1.07-1.97,1.6-2.94c0.03-0.76,0.31-0.82,0.82-0.32
						c6.94,3.74,14.19,6.84,21.58,10.31c-1.32,1-2.25,0.36-3.19,0.32c-1.43-0.07-3.08-0.89-4.1,0.94c0.33-0.16,0.58-0.07,0.76,0.24
						c2.01-0.76,3.61,0.33,5.16,1.28c1.04,0.62,1.26,1.81,1.04,2.97c-0.31,1.71-3.89,4.17-5.62,3.94c1,1.8,4.21,3.1,7.11,2.85
						c3.31-2.63,5.32-6.43,8.46-9.25c-0.91,3.36-3.17,5.79-5.47,8.18c-0.68,0.7-1.76,1.05-1.8,2.26c3.48,0.67,6.13-0.95,8.65-3.26
						l2.13,5.68c-3.72,0.18-7.18-0.12-10.58-1.22c-9.14-1.93-17.76-5.22-25.85-9.87c-0.95-0.55-1.78-1.32-2.67-1.98
						c-3.14-1.95-3.27-2.23-1.21-5.23C412.24,525.68,412.85,523.12,414.1,523.91z M368.48,583.52c4.18-6.63,9.93-11.88,15.52-17.23
						c9.44-9.04,19.32-17.63,28.49-26.96c1.12-1.14,1.97-1.21,3.37-0.48c2.39,1.24,4.89,2.34,7.43,3.26
						c1.83,0.68,1.99,1.37,0.93,2.96c-5.73,8.64-11.41,17.34-17.02,26.06c-8.04,12.49-16,25.04-24.02,37.55
						c-0.36,0.57-0.39,1.89-1.67,1.08c-5.83-3.64-11.44-7.49-14.23-13.88C365.8,591.4,366.08,587.34,368.48,583.52z M362.04,570.76
						c-2.41,3.68-3.76,7.78-5.24,11.89c-0.12-9.27,6.35-20.03,13.29-22.23C367.51,564.14,364.39,567.15,362.04,570.76z
						 M403.47,538.53c0.07-0.04,0.14-0.08,0.22-0.13c0.08-0.03,0.16-0.07,0.24-0.09C403.77,538.38,403.62,538.46,403.47,538.53z
						 M405.33,537.5c0.63-1.4,1.53-2.61,3.28-2.93C407.52,535.54,406.43,536.52,405.33,537.5z M388.94,613.85
						c0.43-1.03,0.86-2.08,1.41-3.06c12.02-21.25,24.48-42.25,37.3-63.03c0.49-0.79,1.01-1.57,1.59-2.3
						c0.36-0.44,0.85-0.81,1.39,0.18c-0.3,0.74-0.57,1.64-1.01,2.43c-3.81,6.77-7.61,13.54-11.5,20.26
						c-8.77,15.15-17.24,30.46-26.88,45.07c-0.26,0.39-0.52,0.77-0.76,1.18c-0.26,0.45-0.57,0.74-1.11,0.48
						C388.88,614.81,388.75,614.33,388.94,613.85z M410.73,514.06c0.72-0.34,1.28-0.33,1.23,0.72c-0.05,1.17-4.83,9.73-5.9,10.27
						c-0.93,0.26-1.04-0.63-1.13-1.3C404.76,522.46,409.48,514.65,410.73,514.06z M418.19,635.25c-0.07-0.03-0.21-0.06-0.21-0.1
						c-0.01-0.11,0.02-0.24,0.03-0.36c0.08,0.03,0.16,0.07,0.24,0.1C418.24,635,418.21,635.12,418.19,635.25z M420.55,635.45
						c-0.29,0.19-0.57,0.2-0.79-0.08c-0.02,0-0.05,0.01-0.07,0.01c-0.03-0.04-0.07-0.07-0.1-0.1c-0.16-0.03-0.3-0.07-0.45-0.11
						c0.05-0.07,0.11-0.13,0.16-0.2c0.1,0.09,0.2,0.2,0.29,0.3c0.04,0.01,0.09,0.01,0.14,0.03c0.02,0.02,0.03,0.04,0.04,0.06
						c0.28-0.05,0.55-0.11,0.82-0.16C420.58,635.29,420.6,635.42,420.55,635.45z M437.26,632.64c-10.77,1.64-21.21-0.53-31.5-3.55
						c-10.72-3.14-20.82-7.74-30.5-13.29c-0.41,1.41,0.95,1.55,1.6,2.05c8.81,6.6,18.7,11.02,29.26,14.02
						c1.07,0.31,2.12,0.69,3.17,1.03c0.53,0.13,1.07,0.26,1.62,0.39c2.08,0.41,4.16,0.83,6.25,1.24c-0.04,0.24-0.07,0.49-0.11,0.74
						c-2.12-0.4-4.25-0.8-6.37-1.2c-0.72,0.11-1.37-0.09-1.97-0.46c-9.78-1.98-18.82-5.81-27.32-10.96
						c-3.25-1.97-6.57-3.89-9.15-6.78c-9.49-8.25-17.46-17.55-19.91-30.36c-1.8-9.43,0.84-17.55,7.83-24.25
						c5.86-5.62,12.67-9.9,19.49-14.17c7.29-4.56,14.5-9.26,21.74-13.91c0.71-0.45,1.39-0.95,3.12-0.99
						c-3.41,2.47-6.25,4.58-9.13,6.63c-9.82,7.01-20.21,13.2-29.67,20.73c-4.66,3.71-8.78,7.91-10.81,13.69
						c-3.11,8.8-0.95,16.72,4.22,24.13c5.39,7.73,12.94,12.93,20.91,17.51c14.01,8.05,28.91,13.66,45.08,15.48
						c9.27,1.05,18.13-0.08,26.2-5.14c3.13-1.97,5.09-4.86,6.38-8.31c-4.91,4.08-10.01,7.53-16.46,8.37
						c-0.93,0.66-2.03,0.24-3.04,0.44c0.87-0.56,1.74-1.07,2.8-1.14c9.39-3.93,14.79-10.76,15.55-21.1
						c0.27-3.75,0.26-7.48-0.04-11.21c-0.88-11-1.82-22-2.85-32.99c-0.38-4.06,1.47-7.24,3.51-10.4c0.39-0.59,0.97-1.1,1.8-1.12
						c0.07,0.28,0.21,0.51,0.15,0.61c-4.74,7.6-2.92,15.71-1.81,23.76c1.4,10.1,3.27,20.11,4.2,30.29
						C463.06,620.01,453.97,630.1,437.26,632.64z M507.19,537.16c-1.18,1.61-2.82,1.57-4.54,1.32c-7.48-1.01-15-1.45-22.55-1.16
						c-1.84,0.07-3.68,0.24-5.52,0.27c5.12-0.88,10.26-1.58,15.49-1.32c0.55,0.04,1.39,0.78,1.6-0.25c0.17-0.77-0.93-0.76-1.3-1.26
						c-11.35-0.32-22.35,1.2-32.76,6.02c-0.68,0.32-1.53,1.17-2.24,0.37c-0.47-0.53-0.11-1.43,0.24-2.11
						c-0.49-5.37-0.49-5.39,4.6-6.07c7.94-1.06,15.82-2.75,23.91-2.4c5.04-0.89,10.07-1.76,14.8-2.6
						c-5.94-4.98-12.7-5.32-20.41-1.51c2.97-3.76,9.13-6.16,12.69-5.44c9.64,1.94,23.06,7.85,28.71,12.75
						C515.5,534.79,511.25,535.63,507.19,537.16z"/>
					<path class="st1" d="M411.38,473.84c-2.55-3.39-5.68-6.45-9.34-9.21c-1.16-0.87-3.6-1.98-2.67-3.32
						c1.05-1.53,3.08,0.18,4.42,1.01c2.63,1.62,4.93,3.43,6.93,5.43C411.02,469.8,411.25,471.83,411.38,473.84z"/>
				</g>
				<path class="st1" d="M590.35,530.49c3.47-8.03,1.4-16-5.79-21.34c-3.04-2.26-6.38-4.11-9.54-6.21
					c-4.42-2.94-7.93-6.61-8.91-12.16c-0.71-4.04,0.24-7.6,2.99-10.63c0.55-0.6,1.12-1.19,1.69-1.76c4.58-4.54,5.31-8.47,2.55-14.43
					c1.55-0.4,2.28,0.89,3.17,1.58c5.69,4.42,7.47,9.91,5.56,16.9c-1.9,6.97-0.88,10.06,4.89,14.43c2.02,1.53,4.13,2.92,6.21,4.36
					c10.37,7.2,8.49,18.89,2.3,25.65c-1.39,1.52-2.85,3.03-4.75,3.96C590.61,530.72,590.48,530.6,590.35,530.49z"/>
				<path class="st1" d="M534.67,560.41c0,2.83,0,5.64,0,8.45c-0.01,39.75-0.02,55.96-0.05,95.71c-0.01,12.95-1.13,25.83-2.6,39.48
					c-0.53-8.29-1.2-15.78-1.47-23.29c-1.11-31.25-0.33-38.95-0.5-70.21c-0.08-14.44,0.11-28.88-0.06-43.32
					C529.95,563.8,530.23,561.12,534.67,560.41z"/>
				<path class="st1" d="M419.9,443.03c16.5-9.22,34.03-15.85,52.02-21.29C455.21,430.43,437.99,437.82,419.9,443.03z"/>
				<path class="st1" d="M567.03,502.86c1.8,2.65,4.67,3.82,7.29,5.27c7.06,3.91,9.58,9.2,8.05,17.99c-1.54-6-5.53-9.7-9.3-13.58
					c-2.27-2.33-4.53-4.71-5.88-7.77c-0.28-0.62-0.93-1.21-0.18-1.94L567.03,502.86z"/>
				<path class="st1" d="M590.34,531.48c-0.04-0.01-0.09-0.03-0.13-0.04c0.02,0.05,0.04,0.12,0.07,0.13
					c0.04,0.01,0.1-0.03,0.14-0.05C590.41,531.52,590.34,531.48,590.34,531.48z"/>
				<path class="st1" d="M590.73,530.84c-0.14,0.21-0.27,0.42-0.4,0.63c0.01,0.01,0.08,0.05,0.09,0.06
					c-0.43-0.31-0.36-0.67-0.07-1.04C590.48,530.6,590.61,530.72,590.73,530.84z"/>
				<path class="st1" d="M567.02,502.83c-0.12,0.19-0.25,0.38-0.37,0.58c-0.38-0.56,0.26-0.37,0.39-0.55
					C567.03,502.86,567.02,502.83,567.02,502.83z"/>
				<path class="st1" d="M514.3,283.07c-6.42-5.11-16.06-4.8-22.19,0.57c-1.69,1.48-2.95,3.44-4.95,4.58
					c1.15,1.49,2.82,0.66,4.18,0.77c5.26,0.45,10.64,1.25,15.69-0.98c2.21-0.98,4.36-1.64,6.76-1.4c0.83-0.64,2.54-0.13,2.68-1.3
					C516.58,284.3,515.14,283.73,514.3,283.07z M497.54,288.79c-1.93-0.01-4.7,0.86-5.4-1.13c-0.7-2,2.1-2.92,3.71-4.55
					c0.2,2.32,1.52,3.69,2.1,5.37C497.78,288.61,497.66,288.79,497.54,288.79z M501.03,284.16c-1.03,0.16-1.94-0.23-2.03-0.86
					c-0.09-0.64,0.66-1.28,1.69-1.43c1.03-0.15,1.94,0.24,2.03,0.87C502.82,283.37,502.06,284,501.03,284.16z"/>
				<path class="st1" d="M502.38,276.52c2.47,0.68,5.34,0.03,7.79,2.52c-2.34-0.31-4.18-0.57-6.02-0.79
					c-4.74-0.57-9.01,0.55-12.73,3.67c-0.23,0.2-0.63,0.19-0.95,0.28C493.52,278.3,497.72,276.9,502.38,276.52z"/>
				<path class="st1" d="M490.52,282.14c0.16,0.56-0.23,0.86-0.57,1.18C489.73,282.72,490.07,282.4,490.52,282.14z"/>
				<path class="st1" d="M490.03,283.29c-0.19,0-0.39,0-0.58,0C489.64,283.29,489.84,283.29,490.03,283.29z"/>
				<path class="st1" d="M500.17,197.01c1.22-1.63,2.47-3.07,3.45-4.68c0.78-1.26,1.48-1.05,2.51-0.46c4.4,2.48,4.45,2.59,1.65,6.85
					c-0.35,0.53-0.75,1.03-1.03,1.6c-0.69,1.4-1.6,1.31-2.42,0.28C503.21,199.15,501.7,198.22,500.17,197.01z"/>
				<path class="st1" d="M527.59,180.07c1.71,1.67,3.39,3.27,5.01,4.93c0.08,0.08-0.19,0.68-0.43,0.89
					c-0.39,0.36-0.89,0.61-1.34,0.91c-3.92,2.61-5.15,2.36-7.9-1.51c-0.53-0.75-0.87-1.31,0.15-1.99c1.48-0.97,3.29-1.49,4.31-3.11
					C527.48,180.09,527.64,180.04,527.59,180.07z"/>
				<path class="st1" d="M499.31,197.83c-1.21,1.95-2.39,4.09-3.82,6.04c-0.53,0.72-1.2-0.35-1.75-0.67
					c-4.15-2.47-4.17-2.51-1.41-6.56c0.56-0.82,0.92-2.49,1.97-2.16c1.74,0.55,3.28,1.76,4.9,2.71
					C499.29,197.24,499.26,197.5,499.31,197.83z"/>
				<path class="st1" d="M504.47,190.26c-1.45-1.07-2.99-2.2-4.53-3.33c1.48-1.87,2.89-3.81,4.5-5.55c0.34-0.37,4.83,2.97,4.83,3.5
					C509.27,185.54,505.16,190.28,504.47,190.26z"/>
				<path class="st1" d="M541.38,283.49c5.22-10.35,13.1-12.66,23.92-9.2c0.6,0.19,1.19,0.41,1.79,0.61
					c1.53,0.91,3.03,1.88,4.6,2.71c1.11,0.58,0.8,1.02-0.02,1.43c-1.68,0.84-3.44,1.42-5.34,1.44c-1.09-0.54-2.1-0.14-3.11,0.25
					c-2.61,1.01-5.31,1.67-8.09,1.88c-3.27,0.25-3.68-0.12-4.03-3.39c-0.08-0.79-0.15-1.59-0.25-2.67c-2.3,1.04-3.55,2.89-4.73,4.74
					c-1.03,1.62,1.26,0.89,1.45,1.84C545.44,283.26,543.41,283.37,541.38,283.49z M555.51,276.67c0.07-0.84-0.39-1.15-1.14-1.12
					c-0.61,0.02-1.43-0.08-1.49,0.77c-0.06,0.81,0.55,1.33,1.35,1.43C554.97,277.83,555.41,277.44,555.51,276.67z"/>
				<path class="st1" d="M545.78,304.67c-0.14,0.02-0.38,0.09-0.4,0.05c-0.16-0.3-0.02-0.46,0.3-0.49
					C545.68,304.38,545.72,304.53,545.78,304.67z"/>
				<path class="st1" d="M468.29,264.3c1.05-1.73,1.9-4.13,3.57-5.55c1.3-1.11,2.48,1.11,3.63,1.97c0.74,0.55,1.25,1.26,0.36,2.26
					c-1.08,1.21-2.01,2.55-2.99,3.85c-0.57,0.76-0.82,2.07-2.06,1.79c-1.21-0.28-1.9-1.29-2.11-2.57
					C468.61,265.59,468.49,265.16,468.29,264.3z"/>
				<path class="st1" d="M461.27,268.4c-1.71-0.97-2.24-2.71-3.29-4.01c-0.82-1,0.28-1.39,0.74-1.93c0.4-0.48,0.92-0.86,1.39-1.28
					c3.21-2.87,3.12-2.79,5.84,0.46c1.2,1.44,1,2.07-0.44,3.06C463.96,265.75,462.66,267.16,461.27,268.4z"/>
				<path class="st1" d="M454.76,315.39c-0.23,0.24-0.43,0.5-0.67,0.71c-0.62,0.52-1.25,1.03-1.88,1.52
					c-1.16,0.9-1.94,3.18-3.36,2.67c-2.18-0.79-3.22-3.3-4.82-5.01c-0.49-0.52,0.25-0.94,0.6-1.3c0.94-0.97,2.11-1.79,2.83-2.91
					c1.56-2.45,2.71-1.31,3.94,0.23C452.48,312.62,453.58,313.94,454.76,315.39z"/>
				<path class="st1" d="M333.59,536.78c-0.07-0.02-0.15-0.02-0.22-0.06c-0.02-0.01,0.02-0.11,0.03-0.17
					c0.04,0.09,0.08,0.19,0.13,0.28C333.53,536.83,333.59,536.78,333.59,536.78z"/>
				<path class="st1" d="M684.02,636.12c0.06,0.12,0.14,0.24,0.17,0.37c0.01,0.05-0.11,0.12-0.17,0.18
					c-0.06-0.12-0.14-0.24-0.17-0.37C683.84,636.26,683.96,636.19,684.02,636.12z"/>
			</g>
		</g>
		<path class="st1" d="M540,143.72c30.42,0,59.91,5.95,87.68,17.7c26.82,11.34,50.91,27.59,71.6,48.28
			c20.69,20.69,36.93,44.78,48.28,71.6c11.74,27.76,17.7,57.26,17.7,87.68v95.49c0,30.42-5.95,59.91-17.7,87.68
			c-11.34,26.82-27.59,50.91-48.28,71.6c-20.69,20.69-44.78,36.93-71.6,48.28c-27.76,11.74-57.26,17.7-87.68,17.7
			c-30.41,0-59.91-5.95-87.68-17.7c-26.82-11.34-50.91-27.59-71.6-48.28c-20.69-20.69-36.93-44.78-48.28-71.6
			c-11.74-27.76-17.7-57.26-17.7-87.68v-95.49c0-30.42,5.95-59.91,17.7-87.68c11.34-26.82,27.59-50.91,48.28-71.6
			c20.69-20.69,44.78-36.94,71.6-48.28C480.09,149.67,509.58,143.72,540,143.72 M540,131.55L540,131.55
			c-131.13,0-237.43,106.3-237.43,237.42v95.49c0,131.13,106.3,237.42,237.42,237.42h0c131.13,0,237.42-106.3,237.42-237.42v-95.49
			C777.42,237.85,671.13,131.55,540,131.55L540,131.55z"/>
	</g>
	<g>
		<g>
			<g>
				
					<rect x="245.28" y="746.95" transform="matrix(0.7071 -0.7071 0.7071 0.7071 -459.2849 399.3457)" class="st1" width="14.24" height="14.24"/>
				
					<rect x="265.55" y="746.95" transform="matrix(0.7071 -0.7071 0.7071 0.7071 -453.3454 413.6644)" class="st1" width="14.24" height="14.24"/>
				<polygon class="st1" points="336.66,749.33 326.59,759.4 316.52,749.33 326.59,739.26 329.55,742.22 				"/>
				<path class="st1" d="M349.16,778.9c-0.73-1.25-1.54-2.41-2.43-3.49c-1.48-1.8-3.19-3.39-5.12-4.74
					c-0.62-0.44-1.26-0.86-1.93-1.25c-3.99-2.32-8.35-3.49-13.1-3.49c-4.74,0-9.11,1.17-13.1,3.49c-0.67,0.39-1.31,0.81-1.93,1.25
					c-1.93,1.35-3.64,2.94-5.13,4.74c-0.89,1.08-1.7,2.25-2.43,3.49c-2.33,3.99-3.49,8.35-3.49,13.1v15.41l7.23,5.92h-16.71
					c-3.24,0-6.02-1.16-8.35-3.49c-2.33-2.33-3.49-5.11-3.49-8.35v-30.81h-26.07c-4.74,0-9.11,1.16-13.1,3.49
					c-0.67,0.39-1.31,0.81-1.93,1.25c-3.09,2.17-5.61,4.91-7.55,8.24c-2.33,3.99-3.49,8.35-3.49,13.1v5.93
					c0,4.74,1.16,9.1,3.49,13.1c2.33,3.99,5.49,7.15,9.48,9.48c3.99,2.33,8.35,3.5,13.1,3.5c3.87,0,7.5-0.77,10.9-2.31
					c3.4-1.54,6.28-3.69,8.65-6.46c2.37,2.37,5.14,4.23,8.29,5.57c3.16,1.34,6.52,2.02,10.07,2.02h61.62v-35.55
					C352.66,787.25,351.49,782.89,349.16,778.9z M241.27,796.73c0-3.24,1.16-6.02,3.49-8.35c2.33-2.33,5.11-3.49,8.35-3.49h11.85
					v17.78c0,3.24-1.16,6.02-3.49,8.35c-2.33,2.33-5.11,3.49-8.35,3.49c-3.24,0-6.02-1.16-8.35-3.49c-2.33-2.33-3.49-5.11-3.49-8.35
					V796.73z M338.44,813.32h-9.24l-14.45-13.04v-8.29c0-3.24,1.16-6.02,3.49-8.35c2.33-2.33,5.11-3.49,8.35-3.49
					c3.24,0,6.02,1.16,8.35,3.49c2.33,2.33,3.49,5.11,3.49,8.35V813.32z"/>
				
					<rect x="393.53" y="836.89" transform="matrix(0.7071 -0.7071 0.7071 0.7071 -479.4618 530.51)" class="st1" width="14.24" height="14.24"/>
				
					<rect x="413.79" y="836.89" transform="matrix(0.7073 -0.7069 0.7069 0.7073 -473.4439 544.5925)" class="st1" width="14.25" height="14.25"/>
				<path class="st1" d="M487.87,775.28l-30.81,0.12h33.37C489.59,775.32,488.74,775.28,487.87,775.28z"/>
				
					<rect x="471.27" y="751.69" transform="matrix(0.7071 -0.7071 0.7071 0.7071 -396.4463 560.5314)" class="st1" width="14.25" height="14.25"/>
				<polygon class="st1" points="701.77,749.33 691.7,759.4 681.62,749.33 691.7,739.26 694.66,742.22 				"/>
				
					<rect x="732.45" y="836.89" transform="matrix(0.7071 -0.7071 0.7071 0.7071 -380.1949 770.1614)" class="st1" width="14.24" height="14.24"/>
				
					<rect x="752.71" y="836.89" transform="matrix(0.7073 -0.7069 0.7069 0.7073 -374.2431 784.1779)" class="st1" width="14.25" height="14.25"/>
				<path class="st1" d="M835.14,788.38c-2.33-3.99-5.49-7.15-9.48-9.48c-3.99-2.33-8.35-3.49-13.1-3.49h-15.88l3.61-4.74
					l25.3-33.18h-19.67l-25.3,33.18l-3.61,4.74v14.22h35.55c3.23,0,6.02,1.16,8.35,3.49c2.33,2.33,3.49,5.11,3.49,8.35v11.85h-60.44
					c-1.98,0-3.66-0.69-5.04-2.07c-1.38-1.38-2.07-3.06-2.07-5.03V775.4h-14.22v30.81c0,1.97-0.69,3.65-2.08,5.03
					c-1.38,1.39-3.06,2.07-5.03,2.07h-17.78v-21.33c0-4.74-1.17-9.1-3.49-13.1c-0.73-1.25-1.54-2.41-2.43-3.49
					c-1.48-1.8-3.19-3.39-5.12-4.74c-0.62-0.44-1.26-0.86-1.93-1.25c-3.99-2.32-8.35-3.49-13.1-3.49c-4.74,0-9.11,1.17-13.1,3.49
					c-0.67,0.39-1.31,0.81-1.93,1.25c-1.93,1.35-3.64,2.94-5.13,4.74c-0.89,1.08-1.7,2.25-2.43,3.49c-2.33,3.99-3.49,8.35-3.49,13.1
					v15.41l7.23,5.92H644.3c-3.24,0-6.02-1.19-8.35-3.55c-2.33-2.37-3.49-5.17-3.49-8.41v-21.21h-14.22v21.21
					c0,4.74,1.16,9.12,3.49,13.15c2.33,4.03,5.49,7.21,9.48,9.54c3.99,2.33,8.35,3.49,13.1,3.49h91.25c5.45,0,10.19-1.81,14.22-5.45
					c4.03,3.64,8.77,5.45,14.22,5.45h74.66v-26.07C838.64,796.73,837.47,792.37,835.14,788.38z M703.55,813.32h-9.24l-14.46-13.04
					v-8.29c0-3.24,1.16-6.02,3.49-8.35c2.33-2.33,5.11-3.49,8.35-3.49c3.24,0,6.02,1.16,8.35,3.49c2.33,2.33,3.49,5.11,3.49,8.35
					V813.32z"/>
			</g>
			<path class="st1" d="M535.27,742.22v71.1h-9.48c-3.24,0-6.02-1.16-8.35-3.49c-2.33-2.33-3.49-5.11-3.49-8.35v-0.12
				c0-4.74-1.16-9.1-3.49-13.1c-2.33-3.99-5.49-7.15-9.48-9.48c-3.26-1.9-6.77-3.03-10.53-3.38h-33.37v-4.74h-14.22v42.66h-17.78
				c-1.98,0-3.66-0.69-5.04-2.07c-1.38-1.38-2.07-3.06-2.07-5.03V775.4h-14.22v30.81c0,1.97-0.69,3.65-2.08,5.03
				c-1.38,1.39-3.06,2.07-5.03,2.07h-17.9v-71.1h-14.22v85.32h32.12c5.45,0,10.19-1.81,14.22-5.45c4.03,3.64,8.77,5.45,14.22,5.45
				h62.8c3.72,0,7.21-0.71,10.49-2.13c3.28-1.42,6.1-3.43,8.47-6.04c2.37,2.61,5.19,4.62,8.47,6.04c3.28,1.42,6.77,2.13,10.48,2.13
				h23.7v-85.32H535.27z M496.22,809.77c-2.33,2.37-5.11,3.55-8.35,3.55h-30.81v-23.7l30.81-0.12c3.24,0,6.02,1.16,8.35,3.49
				c2.33,2.33,3.5,5.11,3.5,8.35C499.72,804.6,498.55,807.4,496.22,809.77z"/>
			<rect x="563.71" y="742.22" class="st1" width="14.22" height="85.32"/>
		</g>
		<g>
			<g>
				<polygon class="st1" points="257.6,904.56 277.21,948.45 263.53,948.45 248.82,915.5 240.73,925.65 240.73,948.45 
					227.04,948.45 227.04,880.05 240.73,880.05 240.73,908.55 263.53,880.05 277.21,880.05 				"/>
				<polygon class="st1" points="300.01,893.73 300.01,907.41 322.81,907.41 322.81,921.09 300.01,921.09 300.01,934.77 
					331.93,934.77 331.93,948.45 286.33,948.45 286.33,880.05 331.93,880.05 331.93,893.73 				"/>
				<polygon class="st1" points="366.14,893.73 366.14,934.77 379.82,934.77 379.82,948.45 338.78,948.45 338.78,934.77 
					352.46,934.77 352.46,893.73 338.78,893.73 338.78,880.05 379.82,880.05 379.82,893.73 				"/>
				<polygon class="st1" points="436.82,880.05 436.82,893.73 404.9,893.73 404.9,907.41 427.7,907.41 427.7,921.09 404.9,921.09 
					404.9,948.45 391.22,948.45 391.22,880.05 				"/>
				<path class="st1" d="M500.67,880.05h-13.68l-22.8,68.4h13.68l6.04-18.24h19.84l6.04,18.24h13.68L500.67,880.05z M488.47,916.53
					l5.36-15.96l5.36,15.96H488.47z"/>
				<polygon class="st1" points="577.05,934.77 577.05,948.45 531.45,948.45 531.45,880.05 545.13,880.05 545.13,934.77 				"/>
				<path class="st1" d="M632.97,892.53c-2.24-3.84-5.28-6.88-9.12-9.12c-3.84-2.24-8.04-3.36-12.6-3.36h-25.08v68.4h25.08
					c4.56,0,8.76-1.12,12.6-3.36c3.84-2.24,6.88-5.28,9.12-9.12c2.24-3.84,3.37-8.04,3.37-12.6v-18.24
					C636.34,900.57,635.22,896.37,632.97,892.53z M622.66,923.37c0,3.12-1.12,5.8-3.37,8.04c-2.24,2.24-4.92,3.36-8.04,3.36h-11.4
					v-41.04h11.4c3.11,0,5.79,1.12,8.04,3.36c2.24,2.24,3.37,4.92,3.37,8.04V923.37z"/>
				<polygon class="st1" points="670.54,893.73 670.54,934.77 684.22,934.77 684.22,948.45 643.18,948.45 643.18,934.77 
					656.86,934.77 656.86,893.73 643.18,893.73 643.18,880.05 684.22,880.05 684.22,893.73 				"/>
				<path class="st1" d="M724.13,880.05h-13.68l-22.8,68.4h13.68l6.04-18.24h19.84l6.04,18.24h13.68L724.13,880.05z M711.93,916.53
					l5.36-15.96l5.36,15.96H711.93z"/>
				<path class="st1" d="M830.15,880.05h-13.68l-22.8,68.4h13.68l6.04-18.24h19.84l6.04,18.24h13.68L830.15,880.05z M817.96,916.53
					l5.36-15.96l5.36,15.96H817.96z"/>
			</g>
			<polygon class="st1" points="800.51,880.05 800.51,893.73 768.59,893.73 768.59,907.41 791.39,907.41 791.39,921.09 
				768.59,921.09 768.59,948.45 754.91,948.45 754.91,880.05 			"/>
		</g>
	</g>
</g>
</svg>
